<svg id="SvgjsSvg1001" width="360" height="360" xmlns="http://www.w3.org/2000/svg" version="1.1" xmlns:xlink="http://www.w3.org/1999/xlink" xmlns:svgjs="http://svgjs.com/svgjs"><defs id="SvgjsDefs1002"></defs><g id="SvgjsG1008" transform="matrix(0.9167,0,0,0.9167,16.352717490386965,14.30220237197878)"><svg xmlns="http://www.w3.org/2000/svg" enable-background="new 0 0 1600 1200" viewBox="0 0 1600 1200" width="360" height="360"><path fill="#7860dc" d="M325.8,100.4c2.6,140,3.6,280,2.8,420c-0.9,166.3-4.2,332.6-10,498.9c224.2-0.7,448.4-1.4,672.6-2.1
		c-4.6-114.9-6.3-235.5-4.5-361.3c1.6-102.9,5.5-202.2,11.2-297.6c-7.7-8.9-15.4-17.8-23.1-26.8H669.3c0-77.5,0-155.1,0-232.6
		c-55.5,6.1-117.4,10.1-184.9,9.8C427.2,108.6,374.1,105.4,325.8,100.4z" class="colorff4f03 svgShape"></path><path fill="#fffaf8" d="M667.7,150.6c-25.7,3.7-68.8,13.3-114.3,41.5c-23.4,14.5-68.5,42.2-95.2,96.3c-14,28.3-19.1,56-21.7,70.2
		c-2.8,15.3-7.5,40.2-5,66.8c3,32,16.2,44.4,44.1,102.1c36.1,74.8,45.1,87.3,52.2,117.2c9.9,41.3,7.2,77.4,3.5,101
		c28.9,11.9,34.3,18.3,33.7,22.1c-0.6,3.5-6.5,3.4-9.3,9.3c-3.3,6.9-0.2,17.3,5.8,23.2c5.9,5.7,11.2,3.9,13.9,9.3
		c2.8,5.4-2,8.4,0,15.1c2.6,8.6,11.8,7.8,15.1,17.4c1.7,4.8-0.5,5.4,1.2,11.6c2.3,8.8,8.4,14.4,10.4,16.3
		c9.2,8.3,15.3,5.4,18.6,11.6c3.6,6.8-2.5,12.8,1.2,18.6c1.2,1.9,4.6,5.7,17.4,5.8c8.5,0.1,45.6,0.3,63.8-25.5
		c16.3-23-3.1-37.6,13.9-69.6c14.7-27.7,34.8-40.6,34.8-40.6c9.6-6.1,19.4-9.7,25.5-20.9c4.8-8.7,4.7-17.1,4.6-23.2
		c0-5.7,0-51.8,7-78.9c4.3-16.8,11.3-26.6,22.1-42.9c30.4-46.4,61.7-101.4,73.1-127.7c13.1-30.1,24.1-76.2,11.3-144
		c-75.7-0.6-151.4-1.1-227-1.7C668.3,270.7,668,210.7,667.7,150.6z" class="colorfffaf8 svgShape"></path><path fill="#7860dc" d="M726.6,46.8c-1.7,5.6-1.7,225.3-1.7,225.3l219.7,7.3h53.6l4.5-232.6H726.6z" class="colorff4f03 svgShape"></path><path fill="#fffaf8" d="M729.2,69c17.6-0.3,47.5,1.4,80.7,15.5c15.1,6.4,69.5,30.6,97.6,91.8c19.4,42.3,16.6,81.4,14,100
		c-34.7-3.2-71-5.7-108.7-7.2c-29.5-1.2-58.2-1.8-86-1.9c-0.3-31.9-0.6-63.8-1-95.6C727,137.2,728.1,103.1,729.2,69z" class="colorfffaf8 svgShape"></path><path fill="#dba98a" d="M903.1 220.5c2.3 3 5.9 7.7 11 12.8 14.1 14.6 23.1 17 32.9 28.7 5.5 6.6 6.7 10.6 12.5 22.3 6.1 12.3 15.4 29.4 29.5 49.5 6.2-5.8 12.3-11.6 18.5-17.4-1.8-2.7-4.8-7-8.7-12.1-13.4-17.6-19.3-21.2-26.4-32.5-2.6-4.1-8.4-13.5-11.3-26.8-3.1-14-1.2-24.6-8.3-40.4-1.4-3.1-3.9-8.7-6-8.3-2.7.5-3.3 10.7-3.4 19.6.4-1.6.8-3.3 1.1-4.9-11.4-9.4-19.9-17-25.7-22.3-3.7-3.4-7.7-7.2-10.6-6-3.3 1.4-3.1 8.6-3 13.2.1 3.7.8 14.7 8.3 26.8 2 3.2 3.9 5.6 5.3 7.2C913.4 226.8 908.2 223.6 903.1 220.5zM1038.6 258.2c-2.1.4-1.2 14.4 1.1 27.2 2.2 11.9 4.5 17.1 7.2 21.1 1.3 2 6.8 10.5 10.2 9.4 4.4-1.4 3.5-17.3 1.9-26.8-1.6-9.5-4.7-16.9-7.2-21.9-2.1-.3-4.9-1.1-7.6-3C1040.3 261.4 1039.7 258 1038.6 258.2zM1004.3 203.1c8.6 5.3 16.1 10.1 22.7 14.3 2.3 1.5 5.9 3.9 6.8 7.9.6 2.5-.5 3.2-.8 6.8-.5 6.6 2.5 8.8 2.6 15.1 0 2.3-.3 5.7-2.3 9.8-4.3-3.9-8.8-7.8-13.6-11.7-6-5-12-9.6-17.7-14C1002.8 222 1003.5 212.5 1004.3 203.1zM1177.3 781.1c-.7 8.1-1.2 20 .5 34.2 2.3 19.8 7 28.7 12.4 48.1 8.5 30.2 3 29.4 11.4 65.7 6.3 27.4 9.7 28.8 15.5 58 3.3 16.4 5 30 4.1 46.1-.6 10.7-2.2 19.6-3.6 25.9.8 0 7.6-.1 11.9-5.7 3.4-4.5 3.8-10.8 1-16 .5-9.9 2.3-21.7 6.7-34.2 1-2.7 2-5.3 3.1-7.8-2.7-5.2-6.3-12.9-9.3-22.8-5.9-19.4-4-29.2-5.2-60-1.4-34.4-2-51.7-7.2-67.8-3.3-10.3-6.9-17.2-7.8-30-.8-10.7.9-16.7.5-32.6-.2-8.9-1-16.2-1.6-20.7C1199 768 1188.2 774.5 1177.3 781.1zM1256 719c3.4 5.2 8.2 12.5 14 21.2 11 16.5 19.5 29.4 29 43 12.8 18.4 23.2 32 30 40.9 23.8 31.2 26.5 31.8 38.3 49.7 9.6 14.4 15.5 23.3 22.3 36.8 2.4 4.8 10.2 20.6 23.8 38.3 3.9 5.1 7.2 8.9 8.3 8.3 1.9-1-4.3-14-8.3-28-3-10.4-6-26.2-4.7-47.1-4.7-2.9-11.5-7.5-18.6-14.5-15.9-15.5-20.7-30.2-29-47.6-16.4-34.7-37.5-61.7-43.5-69.4-8.4-10.7-19.4-23.3-28.5-44.5-3.4-7.9-5.5-14.6-6.7-19.2C1273.6 697.6 1264.8 708.3 1256 719z" class="colordba98a svgShape"></path><path fill="#7860dc" d="M1142.8 570.8c-3.8 1.9-6.7 3.8-8.5 5 .1 15.2.4 30.5.7 46 .9 37.6 2.3 58 4.2 105.4.6 13.8 1.3 34 2.1 58.7 4.1-.9 10.3-2.5 17.7-5 23.4-7.9 39.8-18.9 58.7-31.8 11.6-7.9 18.2-12.4 26.9-19.8 18.4-15.6 30.9-31.2 38.9-42.4 1.4-2.4 2.8-4.7 4.2-7.1-6.4-19.6-14.1-40.5-23.3-62.2-7.3-17.3-14.9-33.5-22.5-48.5-4.8-7.4-9.7-15.3-14.5-23.8-3-5.2-5.7-10.4-8.3-15.4-2.8-1.2-5.7-2.4-8.5-3.5-3.3 3.5-8.1 8.7-14.1 14.9-10.6 10.8-15.8 16.2-18.4 17.7C1166.4 565.8 1159.7 562.1 1142.8 570.8zM1008.6 317.1c-2.9.3-6.2 1.8-6.4 3.5-.2 2.6 7.2 3.4 8.1 7.5.9 4-5.3 6.6-9.3 14.5-2.4 4.8-2.9 9.4-2.9 12.7 25.8 21.2 41.5 35.3 50.9 43.9 0 0 11.9 11 10.4 12.7-.9 1.1-6.1-.5-9.8-2.3-2.6-1.3-3.9-2.5-4.8-2-1.2.7-.5 4 .2 6.6-.2 2.7-.3 5.4-.5 8 4.9-.5 14.3-2.2 23.1-9.2 10.4-8.3 13.7-19.2 15.6-25.4 1.8-5.9 3.2-10.7 2.3-16.8-2-13.5-13.7-21.3-16.8-23.1-3.9-.4-7.7-.8-11.6-1.2-11.8-3.9-19.8-9.2-24.9-13.3C1022.3 325.1 1017 316.2 1008.6 317.1zM1204 1079.2c.9-1.5 2.4-3.6 4.6-5.8 7.7-7.4 14.2-5.2 19.7-9.8 3.4-2.9 3.4-5.8 6.9-31.2 2.4-17 3.2-21.5 6.4-22.6 3.7-1.3 9.3 2.4 11 6.9 1.2 3.1.2 5.7-1.7 11.6-2.8 8.3-5.5 16.5-6.9 23.1-2.7 12 0 12.7-2.9 17.3-5.6 8.8-18.2 10.4-22.6 11C1212.5 1080.6 1207.4 1079.9 1204 1079.2zM1410.5 881.5c3.7 1.1 9 3.3 13.3 8.1 6.8 7.6 3.5 13.7 8.1 38.7 4.1 22.5 6.9 32.4 6.9 32.4 1.2 4.3 2.4 7.8 1.7 8.1-1.3.6-9.6-13.7-15.6-26.6-4.5-9.7-9.3-20.1-12.1-34.7C1410.7 896.8 1410.4 887.8 1410.5 881.5z" class="colorff4f03 svgShape"></path><path d="M1043.9,260.6c-1.2-2.3-9-17.9-1.9-34.1c5-11.4,14.6-16.5,18.6-18.6c17-9.1,34.3-4.5,39.7-3.1c3.5,0.9,22.6,6.3,34.7,23.6
		c12.7,18.1,3.9,29.8,8.7,68.8c3.8,30.8,13.9,61.3,19.2,77.5c9,27.2,16.1,41,8.7,52.1c-5.8,8.6-17.8,11.7-26.7,11.2
		c-12-0.7-21.1-8.2-32.9-21.7c-20.8-23.9-40.2-46.1-47.7-80.6c-7-31.8-12.9-58.9-12.4-65.7c0-0.6,0.3-3.3-1.2-5.6
		C1049.1,261.9,1046.3,261,1043.9,260.6z" fill="#000000" class="color000 svgShape"></path><path stroke="#000000" stroke-miterlimit="10" d="M1177,424.7c-0.5-0.1,0.1-3.1,0.5-7.8c0-0.6,0.1-1.2,0.2-1.9c0.1-0.6,0.1-1.3,0.1-2c0.1-1.4,0-2.9,0.1-4.4
					c-0.1-3.1-0.4-6.5-0.9-10.1c-0.6-3.5-1.5-6.8-2.4-9.8c-0.5-1.5-1-2.9-1.5-4.2c-0.3-0.6-0.5-1.3-0.7-1.9
					c-0.3-0.6-0.5-1.2-0.8-1.7c-1.9-4.3-3.4-6.9-3-7.2c0.3-0.2,2.5,1.9,5.1,6.1c0.3,0.5,0.6,1.1,1,1.7c0.3,0.6,0.6,1.2,0.9,1.9
					c0.7,1.3,1.2,2.7,1.9,4.3c1.1,3.1,2.1,6.5,2.8,10.3c0.6,3.7,0.8,7.4,0.7,10.6c-0.1,1.6-0.1,3.2-0.4,4.6
					c-0.1,0.7-0.2,1.4-0.3,2.1c-0.1,0.7-0.3,1.3-0.4,1.9C1178.8,422.1,1177.4,424.8,1177,424.7z" fill="#000000" class="color000 svgShape colorStroke000 svgStroke"></path><path fill="#fcfcfc" stroke="#fcfcfc" stroke-miterlimit="10" d="M1125.7 413.4c-.3.3-2.9-1.2-6.7-4.5-1.9-1.6-4.1-3.6-6.3-6-2.2-2.4-4.6-5.2-6.9-8.2-2.3-3.1-4.2-6.1-5.8-9-1.6-2.9-2.9-5.5-3.9-7.8-1.9-4.6-2.7-7.6-2.3-7.8.9-.4 5.8 10.8 14.6 22.6C1117.1 404.7 1126.3 412.7 1125.7 413.4zM1139.2 416.8c-.5.7-6.9-3.1-13.1-9.8-6.2-6.7-9.4-13.4-8.7-13.8.8-.5 5.1 5.2 11.1 11.6C1134.4 411.3 1139.7 416.1 1139.2 416.8z" class="colorfcfcfc svgShape colorStrokefcfcfc svgStroke"></path><path d="M772,755c-44.8,12.5-99.8,21.9-162.3,19.9c-13.8-0.4-27.2-1.4-39.9-2.8c-2.1,4-7,14.7-2.8,24.8c2.8,6.7,8.5,10.2,11,11.7
		c5,3,11.1,4.7,18.1,5.4c-4,2.9-7.8,6.9-8.4,12.5c-1.1,9.3,7.5,16.7,8.9,17.9l7.6,4.8c-2.6,7.3-4.4,16.4,0,22.7
		c4.1,5.8,12.7,8.3,19,9.1c-0.3,4.2,2.8,13.2,7.8,24.6c16,2.3,36.6,3.4,59.9-0.2c8.7-1.4,16.7-3.2,24-5.3c0.9-4.1,1.8-8.3,2.8-12.4
		c-5.2-11.5-4.1-16.7-2.1-19.3c1.3-1.6,2.8-2.1,4.6-2.8c1.1,0,2.3-0.5,3.3-1.6c0.2-0.2,0.4-0.4,0.5-0.6c0.4-0.3,0.8-0.7,1.2-1.1
		c0.6-0.7,3.7-3.9,4.7-8.8c1.9-5.1,2.5-10.6,1.8-16c3.9-2.6,8.8-7,11.3-13.7c0.7-1.8,1.8-4.8,1.8-8.4c0.2-0.7,0.4-1.4,0.6-2.2
		c0.9-4.2,1.1-9.3-0.3-13.5c6.9-1.6,13.4-4.5,18.5-10.3C773.1,778.7,772.9,763.8,772,755z M676.5,806.3c14.7-2,30.5-3.7,47.4-4.5
		c3.5-0.2,7.2-0.3,10.9-0.6c0.1,0.1,0.2,0.1,0.2,0.2c0.5,0.8,0.8,1.6,1.1,2.5C712.3,807,692.3,807.2,676.5,806.3z" fill="#000000" class="color000 svgShape"></path><path fill="#ffffff" stroke="#ffffff" stroke-miterlimit="10" d="M1057.7,314.9c-0.1,0.2-1.2,0-3-0.7c-1.8-0.7-4.4-2-7.2-4.2c-2.8-2.2-5.8-5.3-7.9-9.6
					c-1.1-2.1-1.9-4.4-2.7-6.8c-0.7-2.4-1.4-4.8-2-7.4c-1.1-5.2-1.6-10.3-1.7-14.8c-0.1-4.6,0.3-8.7,0.6-12.1
					c0.7-6.9,1.9-11,2.3-10.9c0.5,0.1,0.1,4.3,0,11c-0.1,6.8-0.3,16.1,2,26.1c0.5,2.5,1.2,4.9,1.9,7.2c0.7,2.3,1.4,4.5,2.3,6.4
					c1.8,3.9,4.4,6.9,6.7,9.1c2.4,2.3,4.7,3.8,6.2,4.8C1056.9,314.1,1057.8,314.7,1057.7,314.9z" class="colorfff svgShape colorStrokefff svgStroke"></path><path stroke="#000000" stroke-miterlimit="10" d="M1134 433.9c-.1.1-.8-.3-2.1-1-.6-.4-1.4-.9-2.4-1.4-.5-.3-1-.6-1.5-.9-.5-.4-1.1-.7-1.7-1.1-1.2-.8-2.5-1.7-3.9-2.7-1.4-1-2.8-2.2-4.4-3.5-1.6-1.2-3.2-2.7-4.9-4.2-1.8-1.5-3.4-3.2-5.3-5-.5-.4-.9-.9-1.4-1.4-.4-.5-.9-1-1.4-1.4-.9-1-1.8-2-2.8-3-1-1-1.8-2.1-2.8-3.2-.9-1.1-1.9-2.2-2.8-3.4-1.8-2.4-3.8-4.8-5.6-7.4-.9-1.3-1.9-2.6-2.8-4-.9-1.4-1.8-2.8-2.7-4.2-3.6-5.7-7.2-11.9-10.3-18.5-3.2-6.6-6.2-13.6-8.9-20.9-5.2-14.7-8.8-29.1-11.1-42.4-2.4-13.3-3.7-25.3-4.5-35.4-.8-10.1-1.1-18.3-1.2-24-.1-5.7 0-8.8.2-8.8.2 0 .6 3.1 1.1 8.8.5 5.6 1.2 13.8 2.3 23.9 1.1 10.1 2.7 22 5.2 35.1 2.5 13.1 6.1 27.3 11.3 41.8 2.6 7.2 5.5 14.1 8.7 20.7 3.1 6.5 6.6 12.6 10 18.3.9 1.4 1.8 2.8 2.6 4.2.9 1.4 1.8 2.7 2.7 4 1.7 2.6 3.6 5 5.4 7.4.9 1.2 1.8 2.3 2.7 3.4.9 1.1 1.8 2.2 2.7 3.2.9 1 1.8 2 2.7 3 .4.5.9 1 1.3 1.5.4.5.9.9 1.3 1.4 1.8 1.8 3.4 3.6 5 5.1 1.7 1.5 3.1 3.1 4.7 4.4 1.5 1.3 2.9 2.5 4.2 3.7 1.3 1.1 2.6 2.1 3.7 2.9.5.4 1.1.9 1.6 1.3.5.4 1 .7 1.4 1 .9.7 1.6 1.2 2.2 1.7C1133.5 433.3 1134.1 433.8 1134 433.9zM1060.7 204.3c0 .5-3 .8-7.4 2.4-2.2.8-4.8 1.9-7.3 3.6-2.6 1.7-5.1 3.9-7.2 6.6-2 2.8-3.4 5.8-4 8.8-.3 1.5-.5 2.9-.5 4.2 0 1.3 0 2.6.1 3.8.5 4.6 1.7 7.5 1.2 7.7-.2.1-.7-.5-1.4-1.7-.7-1.2-1.5-3.1-2.1-5.6-.3-1.2-.5-2.6-.6-4.1-.1-1.5 0-3.1.3-4.8.5-3.4 2-7 4.3-10.2 2.4-3.2 5.3-5.6 8.2-7.3 2.9-1.7 5.8-2.7 8.3-3.2C1057.5 203.4 1060.7 203.9 1060.7 204.3zM1166.6 437.3c-.1-.1.5-1 1.4-2.7.9-1.7 2.1-4.4 3-8 .9-3.6 1.5-8.1 1.2-13.4-.3-5.3-1.5-11.2-3.5-17.5-2-6.4-4.6-13.3-7.5-20.6-2.8-7.4-6-15.3-8.7-23.8-2.8-8.5-4.9-17.8-6.4-27.4-1.5-9.7-2.3-19.7-2.9-30-.7-10.3-1.2-20.3-2.1-29.9-.5-4.8-1-9.5-1.7-14.1-.7-4.6-1.4-9-2.6-13.2-.6-2.1-1.2-4.1-2-6.1-.4-1-.9-1.9-1.3-2.8-.4-.9-1-1.8-1.5-2.7-2.1-3.5-4.8-6.5-7.6-9.1-5.7-5.2-12.3-8.5-18.5-10.6-6.3-2-12.3-2.7-17.6-2.9-5.3-.1-9.9.3-13.6.8-7.4 1-11.4 2.2-11.5 1.9 0-.1.9-.5 2.8-1.1 1.9-.6 4.7-1.4 8.5-2.1 3.7-.7 8.4-1.3 13.8-1.3 5.4 0 11.6.5 18.2 2.5 6.6 2 13.5 5.4 19.7 10.8 3 2.7 5.9 5.9 8.3 9.6.6.9 1.2 1.9 1.7 2.9.5 1 1 2 1.5 3 .9 2.1 1.6 4.2 2.2 6.4 4.5 17.6 5.4 37.3 6.7 57.8.7 10.2 1.5 20.2 2.8 29.7 1.4 9.5 3.4 18.6 6.1 27 2.6 8.4 5.7 16.3 8.4 23.8 2.7 7.4 5.2 14.4 7.1 20.9 1.9 6.5 3 12.7 3.1 18.1.2 5.5-.6 10.1-1.8 13.8-1.1 3.7-2.6 6.3-3.7 8C1167.4 436.6 1166.6 437.4 1166.6 437.3zM1073.4 477.3c-.1.2-1.2-.2-3-1.2-1.8-1-4.2-2.7-6.9-5.2-2.7-2.5-5.5-5.8-8.2-9.9-2.6-4.1-5-8.9-6.8-14.1-1.9-5.2-3.1-10.4-4-15.1-.9-4.7-1.5-8.9-1.7-12.6-.2-3.7.3-6.7.9-8.7.6-2 1.2-2.9 1.4-2.9.5.2-1 4.4 0 11.3.4 3.5 1.3 7.6 2.3 12.2 1.1 4.6 2.4 9.5 4.2 14.6 1.8 5 4 9.7 6.3 13.6 2.4 4 4.9 7.3 7.2 9.9C1069.9 474.5 1073.7 476.9 1073.4 477.3zM1118.1 554.9c-.3.3-4.2-2.6-9.7-8.1-.7-.7-1.4-1.4-2.1-2.2-.7-.8-1.5-1.6-2.2-2.5-1.6-1.7-3.1-3.6-4.8-5.6-3.2-4.1-6.6-8.7-9.8-13.7-3.2-5.1-5.8-10.1-8.1-14.8-1.1-2.4-2.1-4.6-2.9-6.7-.4-1.1-.9-2.1-1.2-3.1-.4-1-.7-2-1-2.9-2.6-7.4-3.4-12.2-3.1-12.3.5-.1 2.1 4.4 5.2 11.5.4.9.8 1.8 1.2 2.8.4 1 .9 1.9 1.4 3 .9 2.1 2 4.2 3.2 6.5 2.3 4.5 5 9.4 8.1 14.4 3.1 5 6.3 9.5 9.4 13.6 1.6 2 3 4 4.5 5.7.7.9 1.4 1.7 2.1 2.5.7.8 1.3 1.6 2 2.3C1115.1 551 1118.4 554.5 1118.1 554.9zM1199 512.5c-.3.2-3.6-3.1-8-9.3-.5-.8-1.1-1.6-1.7-2.5-.6-.9-1.1-1.8-1.7-2.8-1.2-1.9-2.3-4-3.6-6.2-2.3-4.5-4.6-9.5-6.7-15-2-5.5-3.4-10.9-4.5-15.8-.5-2.5-1-4.8-1.3-7.1-.2-1.1-.3-2.2-.4-3.2-.1-1-.2-2-.3-3-.6-7.6-.2-12.3.2-12.3.5 0 .9 4.6 2.1 12 .2.9.3 1.9.5 2.9.2 1 .4 2 .6 3.1.4 2.2 1 4.4 1.5 6.8 1.2 4.8 2.7 10 4.7 15.4 2 5.3 4.1 10.3 6.3 14.8 1.1 2.2 2.1 4.3 3.2 6.2.5 1 1 1.9 1.5 2.8.5.9 1 1.7 1.5 2.5C1196.7 508.3 1199.4 512.1 1199 512.5zM1134.9 786.4c-.1 0-.5-.7-1-2-.3-.7-.6-1.6-1-2.6-.4-1-.8-2.2-1.2-3.6-1.7-5.4-3.7-13.5-4.8-23.6-1.2-10.1-1.5-22.2-1.4-35.6 0-6.7.1-13.7-.1-20.9-.2-7.2-.4-14.7-.9-22.4-1-15.3-2.4-30-3.6-43.3-1.2-13.3-2.1-25.3-2.5-35.5-.5-10.1-.4-18.3-.2-24 .2-5.7.5-8.8.7-8.8.2 0 .4 3.1.5 8.8.2 5.6.5 13.8 1.3 23.9.7 10.1 1.9 22 3.2 35.3 1.3 13.3 2.9 27.9 3.9 43.3.5 7.7.8 15.3.9 22.6.1 7.3 0 14.3-.1 21-.2 13.3-.1 25.3.7 35.3.8 10 2.4 18 3.7 23.5.4 1.4.6 2.6.9 3.6.3 1 .5 1.9.7 2.6C1134.8 785.5 1135 786.3 1134.9 786.4zM1204.4 533.7c.3.2-2.6 4.7-8.7 10.9-3 3.1-6.9 6.5-11.5 9.9-4.6 3.4-10.1 6.6-16.2 9.2-6.1 2.6-12.3 4.1-18.1 4.9-5.7.7-10.9.7-15.3.1-4.3-.6-7.7-1.5-10-2.3-2.3-.8-3.4-1.5-3.4-1.7.2-.5 5.2 1.2 13.6 1.7 4.2.3 9.2.1 14.6-.8 5.5-.9 11.3-2.5 17.2-4.9 11.8-5 21.1-12.2 27.4-17.8C1200.5 537.3 1204 533.3 1204.4 533.7zM1207.5 529.8c-.4-.3 0-1.4.6-3 .6-1.5 1.4-3.8.7-5.4-.6-1.7-2.8-2.8-4.2-3.8-1.5-1.1-2.3-2.1-2-2.5.3-.3 1.3-.1 3 .4.8.3 1.9.6 3 1.2 1.1.6 2.5 1.7 3.2 3.5.3.8.5 1.7.4 2.6 0 .8-.2 1.6-.4 2.2-.5 1.3-1.1 2.3-1.7 3C1208.9 529.4 1207.9 530 1207.5 529.8zM1286.5 680.1c-.5.1-3.3-8.6-8.2-22.4-1.2-3.5-2.6-7.3-4.1-11.3-1.5-4.1-3.2-8.4-4.9-12.9-3.6-9.1-7.7-18.9-12.2-29.2-4.6-10.3-9.2-19.9-13.6-28.6-2.2-4.3-4.3-8.5-6.3-12.3-2-3.8-3.9-7.4-5.7-10.6-7-13-11.6-20.9-11.2-21.1.2-.1 1.6 1.7 3.9 5.1 1.2 1.7 2.6 3.8 4.1 6.3 1.6 2.5 3.4 5.3 5.2 8.5 1.9 3.2 3.9 6.7 6 10.5 2.2 3.8 4.3 7.9 6.6 12.2 4.5 8.7 9.2 18.4 13.9 28.7 4.6 10.3 8.6 20.3 12.1 29.5 1.7 4.6 3.3 9 4.7 13.1 1.4 4.1 2.7 8 3.8 11.5 1.1 3.5 2 6.7 2.9 9.6.8 2.8 1.5 5.3 2 7.3C1286.2 677.8 1286.7 680 1286.5 680.1zM1286.3 681.6c.2.1-1.2 2.5-3.9 6.6-.7 1-1.4 2.2-2.3 3.4-.9 1.2-1.8 2.5-2.8 4-2.1 2.8-4.4 6.1-7.2 9.5-1.4 1.7-2.8 3.5-4.3 5.4-1.5 1.9-3.2 3.7-4.9 5.7-.8 1-1.7 2-2.6 3-.4.5-.9 1-1.3 1.5-.5.5-.9 1-1.4 1.5-1.9 2-3.8 4.1-5.8 6.2-8.1 8.4-17.5 17.2-28 25.6-10.6 8.4-21.3 15.5-31.3 21.5-5.1 2.8-9.9 5.6-14.7 7.7-2.3 1.1-4.6 2.2-6.8 3.2-2.2.9-4.4 1.8-6.4 2.6-4 1.8-7.9 2.9-11.2 4.1-1.7.6-3.2 1.1-4.6 1.5-1.5.4-2.8.7-4 1-4.8 1.2-7.4 1.8-7.5 1.6-.1-.2 2.5-1.2 7.1-2.8 1.2-.4 2.4-.8 3.9-1.3 1.4-.5 2.9-1.1 4.5-1.8 3.2-1.3 7-2.6 10.9-4.5 2-.9 4.1-1.8 6.3-2.8 2.2-1 4.3-2.2 6.6-3.3 4.6-2.2 9.3-5.1 14.4-7.9 9.9-6 20.4-13.1 30.8-21.4 10.4-8.3 19.7-17 27.9-25.2 2-2.1 4-4.1 5.9-6.1.5-.5.9-1 1.4-1.5.5-.5.9-1 1.3-1.5.9-1 1.8-2 2.6-2.9 1.7-1.9 3.4-3.7 5-5.5 1.5-1.8 3-3.6 4.4-5.2 2.9-3.3 5.3-6.4 7.5-9.1 1.1-1.4 2.1-2.6 3-3.8.9-1.2 1.7-2.3 2.5-3.2C1284.3 683.6 1286.1 681.5 1286.3 681.6zM1189.4 719.2c-.4-.1.3-6.5 2.5-16.7.6-2.6 1.2-5.3 2-8.3.7-3 1.6-6.1 2.6-9.5 2-6.6 4.4-13.8 7.3-21.3 2.9-7.4 6-14.4 9-20.6 1.5-3.1 3-6 4.5-8.7 1.4-2.7 2.9-5.2 4.2-7.5 5.3-9 9.1-14.2 9.5-14 .4.3-2.7 5.9-7.4 15.1-1.2 2.3-2.5 4.8-3.8 7.6-1.4 2.7-2.7 5.7-4.2 8.8-2.8 6.2-5.8 13.1-8.7 20.5-2.8 7.4-5.3 14.5-7.5 21-1 3.3-2 6.4-2.9 9.3-.9 2.9-1.6 5.6-2.3 8.1C1191.4 713 1189.9 719.3 1189.4 719.2z" fill="#000000" class="color000 svgShape colorStroke000 svgStroke"></path><path stroke="#000000" stroke-miterlimit="10" d="M1236.5 986.6c-.2.1-1.4-2.9-3-8.4-1.7-5.5-3.8-13.6-5.6-23.7-1.9-10.1-3.3-22.4-3.8-36-.3-6.8-.4-13.9-.7-21.3-.3-7.4-.9-14.9-1.9-22.6-2-15.5-5.1-30-7.9-43.3-1.4-6.7-2.5-13.1-3-19.2-.6-6.1-.5-11.8-.2-17 .3-5.2.6-9.8.8-13.8.2-4.1.1-7.5-.1-10.4-.4-5.7-1.3-8.8-1-8.8.1 0 .4.7.9 2.2.2.7.4 1.6.7 2.7.2 1.1.5 2.4.7 3.8.4 2.9.7 6.4.7 10.5 0 4.1-.2 8.8-.3 13.9-.1 5.1-.1 10.7.6 16.6.7 5.9 1.9 12.2 3.3 18.8 2.9 13.2 6.2 27.9 8.2 43.5 1 7.8 1.6 15.5 1.9 22.9.3 7.4.3 14.5.5 21.3.3 13.5 1.6 25.6 3.1 35.7 1.5 10.1 3.3 18.2 4.6 23.8C1236 983.5 1236.7 986.5 1236.5 986.6zM1216.3 1056.6c-.1 0-.2-.9-.4-2.8-.1-.9-.1-2-.2-3.3-.1-1.3-.2-2.8-.4-4.5-.6-6.8-1.6-16.7-3.7-28.8-2.1-12.1-5.3-26.3-9.1-42.1-3.9-15.8-8.2-33.2-12.3-51.5-8.2-36.7-14.2-70.2-18-94.5-1.9-12.2-3.3-22-4.1-28.9-.8-6.8-1.2-10.6-1-10.7.2 0 1 3.7 2.2 10.5 1.2 6.8 3 16.6 5.1 28.7 4.4 24.2 10.8 57.5 18.9 94.1 4.1 18.3 8.3 35.7 12 51.5 3.7 15.8 6.7 30.2 8.5 42.4 1.8 12.2 2.5 22.2 2.7 29.1 0 1.7.1 3.3.1 4.6 0 1.3-.1 2.5-.1 3.4C1216.5 1055.7 1216.4 1056.6 1216.3 1056.6zM1241.4 1069.1c-.4 0-.7-4.7.1-12.1.8-7.4 2.9-17.7 7.1-28.4 1-2.7 2.3-5.2 3-7.6.4-1.2.6-2.3.7-3.5.1-1.1 0-2.2-.3-3.3-.5-2.2-1.4-4.2-2.5-6-1.1-1.8-2.2-3.5-3.3-4.9-2.2-2.9-4.1-5.1-5.5-6.7-1.4-1.5-2.1-2.4-2-2.6.1-.2 1.2.4 2.9 1.7 1.7 1.3 4 3.3 6.4 6.2 1.2 1.4 2.5 3.1 3.8 5 1.2 1.9 2.4 4.1 3.1 6.7.3 1.3.5 2.7.4 4.2-.1 1.4-.4 2.9-.8 4.2-.8 2.7-2 5.2-3 7.8-4.1 10.4-6.5 20.3-7.9 27.5C1242.4 1064.5 1241.9 1069.1 1241.4 1069.1z" fill="#000000" class="color000 svgShape colorStroke000 svgStroke"></path><path stroke="#000000" stroke-miterlimit="10" d="M1230.8 1047.2c-.4 0-1.1-2.7-1.3-7.2-.1-2.2-.1-4.9 0-7.9.2-3 .5-6.2 1.1-9.6.6-3.4 1.4-6.5 2.2-9.4.9-2.8 1.8-5.3 2.7-7.4 1.8-4.1 3.3-6.4 3.7-6.3.9.4-3.1 10.5-5.4 23.6C1231.5 1036.2 1231.8 1047.1 1230.8 1047.2zM1227.1 1059.4c.1.9-3.3 2.2-7.6 3.4-4.3 1.2-7.9 1.9-8.2 1.1-.3-.8 2.9-3 7.3-4.2C1223.1 1058.4 1227 1058.5 1227.1 1059.4zM1186.3 1076.1c-.4-.2-.1-1.7 1.4-3.5.7-.9 1.7-1.8 2.8-2.8 1.1-.9 2.3-1.9 3.8-2.9 2.8-1.9 5.9-3.2 8.3-3.3 2.4-.2 3.8.5 3.7.9 0 .5-1.4.7-3.2 1.4-1.9.7-4.3 2-6.9 3.8-2.7 1.8-5.1 3.4-6.8 4.6C1187.6 1075.4 1186.7 1076.3 1186.3 1076.1zM1242.2 1066.9c.1 0 .1.3 0 .7-.1.4-.3 1-.6 1.7-.7 1.4-2 3.3-4.2 5-2.2 1.7-5.1 3.3-8.5 4.5-3.4 1.2-7.2 2-11.2 2.7-8.1 1.3-15.5 1.4-20.8.9-5.3-.5-8.5-1.4-8.5-1.8.1-1 13.1.4 28.7-2.3 3.9-.7 7.6-1.4 10.8-2.4 3.2-1 6-2.2 8.1-3.5C1240.3 1069.6 1241.7 1066.6 1242.2 1066.9zM1386.8 909.8c-.2.1-1.7-2.7-4.4-7.8-2.9-5-7.2-12.1-13.4-20.3-6.2-8.2-14.4-17.3-23.8-27.1-9.4-9.9-20.1-20.4-30.5-32.4-.7-.7-1.3-1.5-1.9-2.2-.6-.8-1.3-1.5-1.9-2.3-1.2-1.5-2.5-3-3.7-4.5-2.3-3.1-4.7-6.1-6.8-9.2-4.3-6.1-8-12.3-11.3-18.4-3.2-6.1-6-11.9-8.9-17.2-2.9-5.3-5.8-10-8.9-14.1-6.2-8.1-12.4-13.7-16.8-17.4-4.4-3.6-7.1-5.4-7-5.6.1-.2 3 1.2 7.8 4.6 4.7 3.4 11.3 8.8 17.9 17 3.3 4.1 6.5 8.9 9.5 14.2 3 5.3 5.9 11.1 9.2 17.1 3.3 5.9 7 12 11.3 18 2.1 3 4.5 5.9 6.8 9 1.2 1.5 2.4 3 3.7 4.4.6.7 1.2 1.5 1.9 2.2.6.7 1.3 1.5 1.9 2.2 10.3 11.8 20.9 22.4 30.2 32.5 9.4 10 17.4 19.4 23.5 27.8 6.1 8.4 10.1 15.8 12.7 21C1385.9 906.7 1387 909.7 1386.8 909.8zM1408.7 877.6c0 .1-.8-.1-2.2-.6-1.4-.5-3.5-1.5-6-2.9-2.5-1.5-5.4-3.5-8.5-6.2-3.1-2.7-6.3-6.1-9.6-10.1-6.5-8-12.8-18.6-19.4-30.4-6.6-11.8-13.2-25.1-20.8-38.6-3.8-6.8-7.7-13.3-11.7-19.3-4-6.1-8.2-11.7-12.3-17.1-4-5.4-8-10.5-11.5-15.4-3.5-4.9-6.7-9.5-9.4-13.9-5.4-8.7-8.9-16.4-10.7-21.8-.5-1.4-.9-2.6-1.2-3.6-.3-1.1-.5-2-.7-2.7-.3-1.5-.5-2.3-.4-2.3.1 0 .4.7 1 2.1.3.7.6 1.6 1 2.6.4 1 .9 2.2 1.5 3.5 2.2 5.2 5.9 12.6 11.5 21 2.8 4.2 6.1 8.7 9.6 13.5 3.6 4.8 7.6 9.8 11.7 15.1 4.1 5.3 8.4 11 12.5 17.2 4.1 6.1 8.1 12.7 11.9 19.5 7.6 13.6 14.2 27 20.6 38.8 6.4 11.8 12.4 22.4 18.5 30.4 3.1 4 6.1 7.4 9 10.2 2.9 2.8 5.6 4.9 7.9 6.5C1405.9 876.1 1408.8 877.3 1408.7 877.6zM1442.2 969.5c-.4.1-2.8-5.1-5.7-13.9-2.8-8.9-5.9-21.4-7.4-35.6-.4-3.5-.7-7-.8-10.3-.2-3.3-.4-6.5-.9-9.4-.5-2.9-1.3-5.6-2.4-7.9-1.1-2.3-2.5-4.3-4-6-2.9-3.3-6.1-5.3-8.3-6.5-2.2-1.2-3.6-1.7-3.5-1.9 0-.2 1.5-.1 4 .8 2.5.9 6 2.7 9.4 6.1 1.7 1.7 3.4 3.8 4.7 6.3 1.4 2.5 2.4 5.5 3 8.6.6 3.1.9 6.4 1.2 9.7.2 3.3.5 6.7.9 10.2 1.5 13.9 4.2 26.4 6.4 35.3C1441 963.9 1442.7 969.3 1442.2 969.5zM1434.3 971.7c-.2.2-1.2-.7-3-2.4-1.7-1.8-4.1-4.4-6.6-8.1-2.5-3.7-5-8.3-7.2-13.7-2.2-5.4-4.1-11.5-5.6-18.1-2.9-13.1-3.8-25.2-4-33.9-.2-8.7.4-14.1.8-14.1.5 0 .7 5.4 1.5 14 .8 8.6 2.1 20.5 4.9 33.3 1.4 6.4 3.2 12.4 5.2 17.7 2 5.3 4.2 9.9 6.4 13.6 2.1 3.7 4.2 6.5 5.6 8.5C1433.7 970.4 1434.4 971.5 1434.3 971.7z" fill="#000000" class="color000 svgShape colorStroke000 svgStroke"></path><path stroke="#000000" stroke-miterlimit="10" d="M1431.4 969c-.3.3-3.3-2-7.7-6.4-2.2-2.2-4.7-4.8-7.3-7.9-2.6-3.1-5.4-6.6-8.1-10.4-2.7-3.8-5.1-7.6-7.2-11.1-2-3.5-3.7-6.7-5.1-9.5-2.6-5.5-3.8-9.2-3.4-9.3.9-.4 7.6 13 18.3 28.1C1421.6 957.5 1432 968.3 1431.4 969zM1058.2 412.7c-.1.2-2.7-.5-7-2.5-4.3-2.1-10.4-5.7-16.9-11.2-6.6-5.5-13.8-12.8-21.3-21.2-7.5-8.4-15.4-18.1-22.8-28.8-7.4-10.7-13.8-21.4-19.1-31.4-5.2-10-9.4-19.3-12.6-27.2-.8-2-1.5-3.9-2.2-5.7-.7-1.8-1.3-3.5-1.8-5.1-1.1-3.2-2-6-2.7-8.3-1.3-4.6-1.9-7.2-1.7-7.2.2-.1 1.2 2.4 2.9 6.8.8 2.2 2 4.9 3.2 8 .6 1.6 1.3 3.2 2.1 5 .7 1.8 1.5 3.6 2.4 5.6 3.4 7.8 7.7 16.9 13.1 26.7 5.3 9.8 11.7 20.4 19.1 31 7.4 10.6 15 20.3 22.4 28.7 7.4 8.4 14.3 15.8 20.6 21.4 6.3 5.7 11.9 9.5 16 11.9C1055.9 411.4 1058.3 412.4 1058.2 412.7zM1063.2 347c-.1.2-1.9-.1-5.2-1-3.3-.9-7.9-2.5-13.4-5-5.5-2.5-11.9-6-18.6-10.5-6.7-4.5-13.6-10-20.3-16.4-13.4-12.8-23.5-26.3-30.3-36.2-6.8-10-10.3-16.6-10-16.8.4-.3 4.7 5.8 11.9 15.4 7.2 9.6 17.4 22.6 30.6 35.2 6.6 6.2 13.3 11.7 19.8 16.3 6.4 4.5 12.6 8.2 17.9 10.9C1056.2 344.3 1063.4 346.4 1063.2 347zM897.9 212.2c.5-.1 1.4 4 4.4 9.9 1.5 2.9 3.5 6.3 6.2 9.7 2.6 3.4 5.9 7 9.6 10.3 7.5 6.7 15.4 11.6 21 15.3 5.6 3.6 9.1 6 8.9 6.4-.2.4-4.1-1.3-10-4.4-5.9-3.2-14.1-7.9-22-14.9-3.9-3.5-7.2-7.3-9.9-11-2.6-3.7-4.6-7.4-5.9-10.6C897.6 216.6 897.6 212.2 897.9 212.2z" fill="#000000" class="color000 svgShape colorStroke000 svgStroke"></path><path stroke="#000000" stroke-miterlimit="10" d="M919.8 232.1c-.4.8-6.5-2-12.5-7.5-6-5.5-9.2-11.4-8.5-11.9.8-.5 5 4.2 10.7 9.5C915.2 227.4 920.2 231.3 919.8 232.1zM904.1 186.4c.5 0 .7 2.6 1.2 6.7.1 1 .3 2.1.5 3.3.2 1.2.5 2.5.7 3.8.6 2.7 1.4 5.5 2.4 8.5 1 3 2.2 5.7 3.4 8.2.6 1.2 1.2 2.4 1.8 3.4.6 1.1 1.1 2 1.7 2.9 2.1 3.6 3.6 5.7 3.2 6-.3.3-2.4-1.4-5.1-4.7-.7-.8-1.4-1.8-2.1-2.8-.7-1-1.4-2.2-2.1-3.4-1.4-2.5-2.7-5.4-3.8-8.5-1.1-3.1-1.8-6.2-2.2-9-.2-1.4-.4-2.8-.5-4-.1-1.3-.1-2.4-.1-3.5C903.1 189 903.7 186.4 904.1 186.4z" fill="#000000" class="color000 svgShape colorStroke000 svgStroke"></path><path stroke="#000000" stroke-miterlimit="10" d="M932.4,229.9c-0.3,0.3-2.7-1.4-6-4.7c-3.4-3.3-7.6-8.2-11.6-14.2c-4-6-6.9-11.8-8.6-16.2
					c-1.7-4.4-2.4-7.2-2-7.4c0.9-0.4,5.5,10.1,13.3,21.7C925.2,220.9,933.1,229.2,932.4,229.9z" fill="#000000" class="color000 svgShape colorStroke000 svgStroke"></path><path stroke="#000000" stroke-miterlimit="10" d="M939.7,228c-0.8,0.5-9-13.2-20.6-29c-2.9-4-5.7-7.7-8.3-11c-0.7-0.8-1.3-1.7-1.9-2.4l-0.2-0.3l-0.1-0.1
					l0-0.1l-0.1-0.2c-0.1-0.2-0.2-0.3-0.3-0.4c-0.1-0.2-0.2-0.3-0.3-0.5l-0.2-0.3c-0.1,0-0.1,0.1-0.1,0.2c-0.1,0.3-0.2,0.6-0.3,0.9
					c-0.2,0.4-0.4,2.2-0.4,3.3c-0.1,1.2,0,2.3,0,3.2c0.1,1.8,0.2,2.8,0,2.8c-0.2,0.1-0.7-0.8-1.2-2.6c-0.2-0.9-0.5-2-0.6-3.3
					c-0.1-0.7-0.1-1.4-0.1-2.1c0-0.2,0-0.4,0-0.6c0-0.3,0-0.5,0-0.8c0.1-0.6,0.1-1.2,0.2-1.8c0.2-1.2,0.5-2.4,0.8-3.7l0.1-0.5
					l0.1-0.3l0-0.1c0,0,0.1,0,0.1,0.1c0.2,0.2,0.4,0.5,0.7,0.7c0.5,0.5,0.9,1,1.4,1.5c0.5,0.5,1,1.1,1.5,1.6
					c0.5,0.5,0.9,1.1,1.4,1.6c0.7,0.8,1.3,1.6,2,2.4c2.8,3.3,5.7,7,8.6,11C933.5,213.1,940.5,227.7,939.7,228z" fill="#000000" class="color000 svgShape colorStroke000 svgStroke"></path><path stroke="#000000" stroke-miterlimit="10" d="M943.4 215.6c-.4.2-2-1.9-4.5-5.3-2.5-3.4-6-8-10.5-12.5-3.1-3.1-6.4-5.7-9.3-7.6-2.9-1.9-5.5-3.1-7.3-4l.8-1.2c.9 1.4 1.3 2.3 1.1 2.5-.2.2-1-.4-2.2-1.6l-1.9-1.8 2.7.6c2 .4 4.9 1.3 8.2 3 3.3 1.7 6.9 4.4 10.2 7.7 4.7 4.7 8 9.8 10.1 13.6C942.9 212.8 943.8 215.4 943.4 215.6zM946.7 194.2c.8.4-.5 4.5-1 9.5-.5 5 0 9.3-.9 9.5-.4.1-1.1-.8-1.7-2.6-.6-1.8-.9-4.4-.7-7.2.3-2.8 1.1-5.3 2-7C945.4 194.8 946.3 194 946.7 194.2zM967.1 262.1c-.3.2-2.5-3.1-4.8-9-.3-.7-.6-1.5-.9-2.3-.3-.8-.5-1.7-.8-2.5-.6-1.8-1.1-3.7-1.6-5.7-1-4-1.9-8.4-2.8-13.1-.9-4.6-1.7-9-2.5-13-.4-2-.8-3.9-1.2-5.6-.2-.9-.4-1.7-.6-2.5-.2-.8-.4-1.6-.6-2.3-1.6-5.9-2.9-9.5-2.5-9.7.4-.2 2.5 3.1 4.7 9 .3.7.5 1.5.8 2.3.3.8.5 1.7.8 2.5.6 1.8 1 3.7 1.6 5.7 1 4 1.9 8.4 2.8 13.1.9 4.6 1.7 9 2.5 13 .4 2 .8 3.9 1.3 5.6.2.9.4 1.7.6 2.5.2.8.4 1.6.6 2.3C966.1 258.3 967.5 261.8 967.1 262.1zM1029.8 262c-.7.6-6.8-5.5-14.5-12.6-7.7-7.2-14.2-12.8-13.6-13.6.5-.7 8 3.8 15.8 11.2C1025.5 254.3 1030.5 261.4 1029.8 262zM1033.3 224.2c-.5.7-7.8-3.9-16.2-10.4-5.8-4.5-10.7-8.7-12.9-11l1-1.1c.9 1.1 1.2 1.9 1.1 2.1-.2.2-.9-.2-2.1-1l1-1.1c2.9 1.5 8.1 5.2 14 9.7C1027.5 217.7 1033.9 223.5 1033.3 224.2z" fill="#000000" class="color000 svgShape colorStroke000 svgStroke"></path><ellipse cx="1001.2" cy="166.2" stroke="#000000" stroke-miterlimit="10" stroke-width="2" rx="3.3" ry="106.4" fill="#000000" class="color000 svgShape colorStroke000 svgStroke"></ellipse><ellipse cx="724.9" cy="162.3" stroke="#000000" stroke-miterlimit="10" stroke-width="2" rx="3.3" ry="109.7" fill="#000000" class="color000 svgShape colorStroke000 svgStroke"></ellipse><ellipse cx="837" cy="279.4" stroke="#000000" stroke-miterlimit="10" stroke-width="2" rx="107.5" ry="3.3" fill="#000000" class="color000 svgShape colorStroke000 svgStroke"></ellipse><ellipse cx="858.9" cy="46.8" stroke="#000000" stroke-miterlimit="10" stroke-width="2" rx="132.1" ry="3.3" fill="#000000" class="color000 svgShape colorStroke000 svgStroke"></ellipse><path stroke="#000000" stroke-miterlimit="10" stroke-width="2" d="M907.2,175.3c-1,0.5-6.4-10.4-18-25.8c-5.8-7.7-13.2-16.5-22.4-25.3c-1.1-1.1-2.3-2.2-3.5-3.3
					c-1.2-1.1-2.5-2.1-3.7-3.2c-1.3-1.1-2.5-2.2-3.8-3.3c-1.3-1.1-2.7-2.1-4-3.2c-0.7-0.5-1.3-1.1-2-1.6c-0.7-0.5-1.4-1-2.1-1.5
					c-1.4-1-2.9-2.1-4.3-3.1c-1.5-1-3-2-4.5-2.9c-1.5-1-3-2-4.6-2.9c-12.5-7.5-25.4-13-37.5-16.7c-12.2-3.7-23.5-6-33-8
					c-4.8-1-9.1-1.9-12.9-2.7c-3.8-0.8-7-1.3-9.7-1.6c-5.3-0.6-8.3-0.5-8.4-1c-0.1-0.4,2.9-1.4,8.5-1.6c2.8-0.1,6.2,0.1,10.1,0.5
					c3.9,0.4,8.3,1.1,13.1,1.8c9.7,1.5,21.2,3.3,33.9,6.8c12.6,3.5,26.2,9.1,39.2,16.9c1.7,0.9,3.2,2,4.8,3c1.6,1,3.1,2,4.7,3.1
					c1.5,1.1,3,2.2,4.4,3.3c0.7,0.5,1.5,1.1,2.2,1.6c0.7,0.6,1.4,1.1,2.1,1.7c1.4,1.1,2.8,2.3,4.1,3.4c1.4,1.1,2.6,2.3,3.9,3.5
					c1.3,1.2,2.5,2.3,3.8,3.4c1.2,1.2,2.4,2.4,3.5,3.5c9.2,9.3,16.5,18.7,21.9,26.9C903.9,163.3,907.8,175,907.2,175.3z" fill="#000000" class="color000 svgShape colorStroke000 svgStroke"></path><path stroke="#000000" stroke-miterlimit="10" d="M920.5 277.7c-.9 0-1.3-6.6-1.9-14.5-.6-8-1.1-14.5-.2-14.6.9-.2 2.8 6.2 3.4 14.4C922.4 271.2 921.4 277.8 920.5 277.7zM891.4 59.8c.5.7-6.7 7.1-15.9 14.5-9.2 7.4-17 13.1-17.6 12.4-.6-.7 6.3-7.5 15.6-15C882.7 64.3 890.8 59.1 891.4 59.8zM983.2 52.4c.2.4-4.5 3.7-12.3 9-7.8 5.2-18.6 12.4-30.5 20.3-11.9 8-22.6 15.2-30.4 20.5-7.8 5.2-12.7 8.4-13 8-.3-.4 4.2-4.1 11.6-9.9 7.5-5.7 18-13.3 29.9-21.3 11.9-8 23-14.8 31.1-19.6C977.7 54.6 982.9 52 983.2 52.4zM950.7 131.5c.5.8-6.7 6.2-16.2 12.1-9.4 5.9-17.4 10.1-17.9 9.3-.5-.8 6.8-6.2 16.2-12.1C942.2 134.9 950.2 130.7 950.7 131.5z" fill="#000000" class="color000 svgShape colorStroke000 svgStroke"></path><ellipse cx="669.3" cy="213.6" stroke="#000000" stroke-miterlimit="10" stroke-width="2" rx="3.3" ry="114.4" fill="#000000" class="color000 svgShape colorStroke000 svgStroke"></ellipse><ellipse cx="823.5" cy="331.7" stroke="#000000" stroke-miterlimit="10" stroke-width="2" rx="151.2" ry="3.3" fill="#000000" class="color000 svgShape colorStroke000 svgStroke"></ellipse><ellipse cx="998" cy="685.8" stroke="#000000" stroke-miterlimit="10" rx="1.6" ry="326.9" fill="#000000" class="color000 svgShape colorStroke000 svgStroke"></ellipse><ellipse cx="312" cy="1022.8" stroke="#000000" stroke-miterlimit="10" rx="1.6" ry=".5" fill="#000000" class="color000 svgShape colorStroke000 svgStroke"></ellipse><ellipse cx="648.1" cy="1021.4" stroke="#000000" stroke-miterlimit="10" stroke-width="2" rx="339.4" ry="3.3" fill="#000000" class="color000 svgShape colorStroke000 svgStroke"></ellipse><ellipse cx="306" cy="560.6" stroke="#000000" stroke-miterlimit="10" stroke-width="2" rx="3.3" ry="453" fill="#000000" class="color000 svgShape colorStroke000 svgStroke"></ellipse><ellipse cx="489.8" cy="97.3" stroke="#000000" stroke-miterlimit="10" stroke-width="2" rx="173.8" ry="3.3" fill="#000000" class="color000 svgShape colorStroke000 svgStroke"></ellipse><path stroke="#000000" stroke-miterlimit="10" stroke-width="2" d="M534.5,720.1c-0.5,0-0.9-5.6-1.6-15.6c-0.7-10-1.8-24.5-4.8-42.1c-1.5-8.8-3.6-18.3-6.5-28.4
					c-1.4-5-3.3-10.1-5.1-15.4c-0.2-0.7-0.5-1.3-0.7-2c-0.3-0.7-0.5-1.3-0.8-2c-0.5-1.3-1.1-2.6-1.6-4c-1.1-2.6-2.1-5.4-3.4-8
					c-1.2-2.7-2.5-5.4-3.7-8.1c-1.3-2.7-2.7-5.5-4-8.2c-0.7-1.4-1.4-2.8-2.1-4.2c-0.7-1.4-1.5-2.8-2.2-4.2c-1.5-2.8-2.9-5.6-4.5-8.4
					c-6.2-11.3-12.9-22.9-19.6-34.9c-6.8-11.9-13.2-23.8-18.9-35.5c-0.7-1.5-1.4-2.9-2.1-4.4c-0.4-0.7-0.7-1.5-1.1-2.2
					c-0.3-0.7-0.6-1.5-1-2.2c-1.3-2.9-2.6-5.8-3.8-8.7c-1.2-2.9-2.3-5.8-3.4-8.7c-0.5-1.4-1.1-2.9-1.6-4.3c-0.5-1.4-0.9-2.9-1.4-4.3
					c-0.9-2.9-1.9-5.7-2.7-8.5c-0.7-2.8-1.5-5.7-2.2-8.4c-1.5-5.5-2.4-11-3.3-16.3c-1.6-10.6-2.1-20.6-2-29.7
					c0.1-9.1,0.9-17.3,2-24.4c1.1-7.1,2.4-13.2,3.7-18.1c2.6-9.8,4.9-14.9,5.3-14.8c0.5,0.2-1,5.5-2.8,15.4c-0.9,4.9-1.9,11-2.6,18
					c-0.7,7-1.2,15.1-1,24c0.2,8.9,1,18.6,2.7,28.9c0.9,5.1,1.9,10.4,3.5,15.8c0.7,2.7,1.5,5.4,2.3,8.1c0.8,2.7,1.8,5.5,2.8,8.2
					c0.5,1.4,0.9,2.8,1.4,4.2c0.5,1.4,1.1,2.8,1.7,4.2c1.1,2.8,2.2,5.6,3.4,8.5c1.3,2.8,2.5,5.7,3.8,8.5c0.3,0.7,0.6,1.4,1,2.2
					c0.3,0.7,0.7,1.4,1.1,2.1c0.7,1.4,1.4,2.9,2.1,4.3c5.7,11.5,12.1,23.2,18.9,35.1c6.7,11.9,13.4,23.6,19.6,35
					c1.6,2.8,3,5.7,4.5,8.6c0.7,1.4,1.5,2.8,2.2,4.2c0.7,1.4,1.4,2.8,2.1,4.3c1.4,2.8,2.7,5.6,4,8.4c1.2,2.8,2.5,5.6,3.7,8.3
					c1.3,2.7,2.2,5.5,3.3,8.3c0.5,1.4,1.1,2.7,1.6,4.1c0.3,0.7,0.5,1.3,0.8,2c0.2,0.7,0.5,1.4,0.7,2c1.8,5.4,3.6,10.7,4.9,15.8
					c2.7,10.4,4.6,20.1,5.8,29.1c2.4,18,2.8,32.6,2.8,42.7C535.4,714.5,534.9,720.1,534.5,720.1z" fill="#000000" class="color000 svgShape colorStroke000 svgStroke"></path><path stroke="#000000" stroke-miterlimit="10" stroke-width="2" d="M660.6 151.1c.1.5-4.4 1.4-12.3 3.3-7.9 1.9-19.4 4.7-33.1 9.4-13.8 4.7-29.9 11-46.8 20-8.4 4.5-17.1 9.7-25.7 15.5-8.6 5.9-17.1 12.5-25.3 19.8-2 1.9-4.1 3.7-6 5.6-1.9 1.9-3.8 3.8-5.7 5.7-.9.9-1.9 1.9-2.8 2.8-.9 1-1.8 2-2.7 3-1.8 2-3.5 3.9-5.3 5.8-1.7 2-3.3 4-4.9 6-1.6 2-3.2 3.9-4.7 6-1.5 2-2.9 4-4.4 6l-1.1 1.5-1 1.5c-.7 1-1.3 2-2 3-1.3 2-2.7 3.9-3.9 5.9-1.2 2-2.4 4-3.6 5.9-.6 1-1.2 1.9-1.7 2.9-.5 1-1.1 1.9-1.6 2.9-1.1 1.9-2.1 3.8-3.1 5.7-1 1.9-1.9 3.8-2.8 5.6-.9 1.8-1.9 3.6-2.7 5.4-1.6 3.6-3.3 7-4.6 10.4-5.7 13.4-9.3 24.6-11.7 32.4-2.4 7.8-3.6 12.2-4.1 12.1-.4-.1 0-4.6 1.6-12.7 1.7-8.1 4.7-19.6 9.9-33.5 1.2-3.5 2.8-7 4.3-10.8.7-1.9 1.7-3.7 2.5-5.6.9-1.9 1.8-3.8 2.7-5.8 1-1.9 2-3.9 3.1-5.9.5-1 1-2 1.6-3 .5-1 1.1-2 1.7-3 1.2-2 2.3-4 3.5-6.1 1.2-2.1 2.6-4.1 3.9-6.1.7-1 1.3-2.1 2-3.1l1-1.6 1.1-1.5c1.5-2 2.9-4.1 4.4-6.2 1.4-2.1 3.1-4.1 4.7-6.2 1.6-2 3.2-4.1 5-6.2 1.8-2 3.6-4 5.4-6 .9-1 1.8-2 2.7-3.1 1-1 1.9-1.9 2.9-2.9 1.9-2 3.9-3.9 5.9-5.9 2-1.9 4.1-3.8 6.2-5.7 8.5-7.5 17.2-14.3 26-20.3 8.9-5.9 17.8-11.1 26.5-15.6 17.4-8.9 34.1-14.9 48.2-19.1 14.2-4.2 25.9-6.4 34.1-7.5C656 150.8 660.5 150.7 660.6 151.1zM784.4 730.5c-.2 0-.7-1.3-1.3-4-.2-.7-.3-1.4-.5-2.3-.2-.8-.4-1.8-.5-2.8-.3-2-.6-4.3-1-7-.2-2.6-.4-5.6-.6-8.8 0-1.6 0-3.3 0-5.1 0-.9 0-1.8 0-2.7 0-.9.1-1.8.1-2.8.1-1.9.2-3.8.3-5.8.2-2 .5-4.1.7-6.2.2-2.1.6-4.3 1-6.5.2-1.1.4-2.2.6-3.4.2-1.1.5-2.3.7-3.4 3.8-18.6 11.5-40.1 23-62.3 5.7-11.1 12.3-22.5 19.4-34 7.1-11.5 14.4-23.4 21.9-35.6 7.4-12.2 14.3-24.3 20.4-36.2 6.1-11.9 11.1-23.8 15.1-35.4 4-11.6 7-22.9 9.3-33.6 2.2-10.7 3.6-20.8 4.6-30.1 1.9-18.5 1.5-33.7 1-44.1-.1-2.6-.2-4.9-.4-6.9-.1-2-.3-3.7-.3-5.1-.1-2.8-.1-4.2.1-4.3.2 0 .6 1.4 1.2 4.1.3 1.4.6 3 1 5.1.3 2 .6 4.3 1 6.9 1.2 10.5 2.3 25.8 1 44.7-.6 9.4-1.8 19.8-3.8 30.7-2.1 11-4.9 22.5-8.9 34.5-3.9 11.9-9 24.2-15.1 36.3-6.1 12.2-13 24.5-20.5 36.7-7.5 12.3-15 24.1-22.1 35.5-7.1 11.5-13.7 22.6-19.5 33.5-11.6 21.7-19.6 42.5-23.8 60.6-.3 1.1-.6 2.2-.8 3.3-.2 1.1-.4 2.2-.7 3.3-.4 2.2-.9 4.3-1.2 6.3-.3 2.1-.6 4.1-.9 6-.2 2-.4 3.9-.6 5.7-.1.9-.2 1.8-.3 2.7 0 .9-.1 1.8-.1 2.6-.1 1.7-.2 3.4-.2 4.9 0 3.2 0 6.1 0 8.6.1 2.6.3 4.9.4 6.9 0 1 .1 1.9.2 2.8.1.8.2 1.6.2 2.3C784.6 729 784.6 730.5 784.4 730.5z" fill="#000000" class="color000 svgShape colorStroke000 svgStroke"></path><path stroke="#000000" stroke-miterlimit="10" stroke-width="4" d="M631.1,761.3c-0.9,0-1.5-5.6-1.7-15.6c-0.3-10-0.2-24.5-0.3-42.3c-0.1-17.8-0.2-39-1.6-62.4
					c-0.1-1.5-0.2-2.9-0.2-4.4c-0.1-1.5-0.2-3-0.3-4.5c-0.2-3-0.5-6-0.7-9.1c-0.3-3-0.6-6.1-0.9-9.2c-0.3-3.1-0.7-6.2-1.1-9.4
					c-1.6-12.6-3.5-25.6-6.4-38.7c-5.5-26.3-13.6-50.6-22.6-72.1c-2.3-5.4-4.6-10.5-7-15.5c-2.4-5-4.7-9.8-7.2-14.2
					c-2.5-4.5-5-8.7-7.6-12.6c-2.6-3.9-5.4-7.6-8.1-11.2c-5.4-7.1-10.3-13.7-14.1-19.9c-3.9-6.2-6.6-12-8.2-17
					c-0.9-2.5-1.3-4.8-1.7-6.7c-0.2-2-0.4-3.7-0.5-5c0.1-2.8,0.3-4.2,0.8-4.2c0.4,0,1.1,1.3,1.8,3.8c0.4,1.2,1,2.7,1.6,4.5
					c0.8,1.7,1.5,3.7,2.7,5.8c2.1,4.3,5.3,9.3,9.5,14.8c4.2,5.5,9.4,11.5,15.3,18.3c2.9,3.4,6,7,9.1,11.1c3.1,4,6,8.4,8.8,13
					c2.8,4.6,5.5,9.5,8.1,14.6c2.6,5,5.2,10.3,7.7,15.8c10,21.9,18.7,47,24.4,74.2c2.9,13.6,4.9,27,6.3,40c0.3,3.2,0.7,6.5,0.9,9.6
					c0.2,3.2,0.5,6.3,0.7,9.5c0.2,3.1,0.3,6.2,0.5,9.3c0.1,1.5,0.1,3,0.2,4.6c0,1.5,0.1,3,0.1,4.5c0.7,23.9-0.1,45.3-1.2,63.2
					c-1.1,17.9-2.6,32.4-3.9,42.3C633.1,755.8,632,761.3,631.1,761.3z" fill="#000000" class="color000 svgShape colorStroke000 svgStroke"></path><path stroke="#000000" stroke-miterlimit="10" stroke-width="4" d="M691.1,745.2c-0.9,0-1-14-0.3-39.2c0.7-25.3,2.3-61.9,5.2-107.2c0.8-11.3,1.3-23.2,3-35.9
					c0.8-6.3,2-12.7,3.6-19.2c1.7-6.5,3.9-12.9,6.4-19.3c2.5-6.4,5.3-12.7,8.3-19c2.9-6.3,6-12.7,9.1-19.2c3.1-6.5,6.4-13,9.8-19.6
					c3.4-6.6,7-13.1,9.8-19.7c1.4-3.3,2.6-6.6,3.5-9.9c0.8-3.3,1.3-6.6,1.4-10c0.1-3.5-0.3-7.4-0.2-11.8c0.1-4.4,0.8-8.8,1.9-13.1
					c1.1-4.3,2.7-8.5,4.9-12.4c0.3-0.5,0.5-1,0.8-1.5l0.2-0.4l0.1-0.2l0.1-0.2c0.2-0.3,0.4-0.6,0.6-1c0.9-1.2,1.9-2.4,3.3-3.6
					c0.7-0.6,1.6-1.1,2.7-1.6c1.1-0.5,2.5-0.8,4-0.8c0.4,0,0.8,0,1.2,0.1c0.5,0.1,1,0.2,1.5,0.4c0.3,0.1,0.5,0.2,0.5,0.2l0.2,0.1
					l0.2,0.1c0.9,0.4,0.5,0.3,0.9,0.4c1.3,0.8,2.5,1.9,3.2,3c1.4,2.3,1.7,4.2,1.8,5.8c0.1,0.8,0.1,1.5,0.1,2.2l-0.1,1.7
					c0,1.1-0.1,2.2-0.2,3.3c-0.1,1.1-0.2,2.2-0.4,3.3c-0.6,4.4-1.7,8.9-3.3,13.2c-1.6,4.4-3.9,8.7-6.9,12.6c-3,3.9-6.9,7.4-11.5,9.8
					c-4.7,2.4-9.9,3.7-15,3.8c-2.6,0.1-5.2-0.2-7.7-0.7l-1.9-0.4l-0.9-0.2l-0.9-0.3l-1.8-0.6l-1.8-0.7c-4.8-2-9.2-5.3-12.7-9.5
					c-1.7-2.1-3.2-4.4-4.2-6.9c-0.6-1.2-1-2.5-1.5-3.7c-0.2-0.6-0.4-1.3-0.5-1.9c-0.2-0.6-0.4-1.3-0.5-1.9l-0.3-2
					c-0.1-0.7-0.1-1.3-0.2-2c-0.2-1.3-0.1-2.6-0.2-4c0.1-2.6,0.4-5.3,1-7.9c1.2-5.2,3.8-10.2,7.4-14.4l9.9-11.4l1.5,15.1
					c0.7,7,0,14.2-2,21c-1,3.4-2.3,6.7-4,9.9c-0.4,0.8-0.9,1.6-1.3,2.4c-0.5,0.8-0.9,1.5-1.4,2.3c-1,1.6-2.2,3.1-3.5,4.5
					c-2.6,2.9-5.7,5.6-9.9,7.4c-2.1,0.9-4.4,1.5-6.8,1.6c-2.4,0.1-4.9-0.2-7.2-1c-2.3-0.8-4.3-2-6.1-3.3c-1.8-1.4-3.2-2.9-4.4-4.5
					c-1.3-1.6-2.3-3.3-3.2-4.9c-0.9-1.7-1.6-3.4-2.3-5.1c-0.3-0.9-0.6-1.7-0.9-2.6l-0.7-2.5c-0.4-1.7-0.8-3.4-1.1-5.2
					c-0.6-3.5-0.8-7.1-0.7-10.8c0.2-3.7,0.8-7.4,2.1-11c1.3-3.6,3.3-7.2,6-10.1l2.4-2.7l3.3,0.6c0.5,0.1,1.1,0.2,1.6,0.4
					c0.5,0.2,1.1,0.4,1.6,0.7c0.5,0.3,1,0.6,1.4,1c0.4,0.4,0.8,0.8,1.2,1.2c1.4,1.6,1.9,3.2,2.2,4.5c0.6,2.6,0.5,4.6,0.3,6.6
					l-0.1,0.8l-0.1,0.5l-0.2,1l-0.4,2.1c-0.2,1.4-0.5,2.7-0.7,4.1c-1,5.5-2,10.9-3,16.4c-0.5,2.8-1.2,5.8-2.2,8.8
					c-1,3-2.5,6.1-4.6,9c-2.1,2.8-4.8,5.3-8.2,7.1c-1.7,0.9-3.6,1.6-5.6,1.9c-2,0.4-4.1,0.4-6,0.2c-3.9-0.5-7.2-2.1-10-3.8
					c-1.4-0.9-2.7-1.9-3.9-2.9l-1.7-1.6c-0.6-0.5-1.1-1-1.6-1.6c-4.2-4.4-7.6-9.6-9.8-15.1c-2.2-5.5-3.5-11.4-3.7-17.3
					c-0.2-5.9,0.7-11.8,2.7-17.4l1.8-5.2l5.1,1.3c0.7,0.2,1.4,0.4,2.1,0.6c0.7,0.3,1.4,0.7,2,1.1c1.3,0.9,2.3,2,3.1,3.2
					c1.5,2.3,2,4.5,2.2,6.5c0.2,2,0.2,3.7,0,5.4c-0.2,1.7-0.5,3.3-1,5c-1.6,5.3-3.1,10.8-5.7,16.2c-1.3,2.7-2.8,5.4-4.8,7.8
					c-1.9,2.4-4.3,4.9-7,6.7c-2.7,1.8-5.6,3.2-8.8,4.1c-3.2,0.9-6.6,1.2-10.1,0.6c-1.7-0.3-3.4-0.8-5.1-1.5
					c-0.8-0.4-1.6-0.8-2.4-1.3c-0.7-0.5-1.4-1-2.1-1.5c-2.7-2.2-4.6-4.8-6.1-7.3c-1.5-2.5-2.6-5-3.7-7.3c-1-2.4-2-4.8-2.9-7.3
					c-1.7-5-3-10.3-3-16c0-2.8,0.4-5.8,1.4-8.7c1-2.9,2.6-5.6,4.6-7.9l5.5-6.3l3.1,7.7c3.2,8,3.8,16.5,2.2,24.4
					c-0.8,4-2.2,7.8-4,11.3c-1,1.7-2,3.5-3.3,5.1c-1.3,1.6-2.8,3.2-4.7,4.5c-0.9,0.7-2,1.3-3.1,1.7c-1.1,0.5-2.3,0.8-3.4,1
					c-2.4,0.5-4.8,0.3-6.9-0.2c-2.2-0.5-4.1-1.4-5.8-2.4c-1.7-1-3.2-2.2-4.6-3.5c-1.4-1.3-2.6-2.6-3.8-4c-1.1-1.4-2.2-2.9-3-4.3
					c-1.8-2.8-3.3-5.4-4.9-7.8c-1.6-2.4-3.2-4.5-5.1-6c-0.9-0.8-1.9-1.4-2.8-2c-0.4-0.2-0.7-0.3-0.8-0.3c0,0,0,0,0,0l0-0.4l0-0.3
					l0-0.3c0-0.2-0.1-0.3-0.1-0.3l0,0l0,0c1.3,2.3,0.1,0.8,0.4,1.2l0,0l-0.1,0c-0.7,0.4-0.8,1.3-0.8,2c0,0.8,0.3,1.5,0.5,2.2
					c0.4,1.4,0.9,2.9,1.5,4.3c1.2,2.8,2.7,5.7,5,7.9c1.1,1.1,2.5,2,4,2.6c0.7,0.3,1.5,0.5,2.3,0.7c0-0.6-0.1-1.3-0.1-1.9
					c-0.4-3.8-1.3-7.5-2.6-11.1c-0.7-1.8-1.4-3.5-2.3-5.2c-0.1-0.2-0.2-0.4-0.3-0.7l-0.5-0.8c-0.3-0.5-0.6-1.1-0.9-1.6
					c-0.6-1.1-1.2-2.1-1.9-3.1c-0.6-1-1.3-1.9-1.9-2.8c-0.6-0.9-1.3-1.7-1.9-2.3c-0.6-0.7-1.3-1.2-1.9-1.5c-0.2-0.1-0.3-0.1-0.5-0.2
					c-0.1,0-0.1,0-0.2-0.1l-0.1,0l-0.2,0l-0.2,0l-0.1,0l0,0c0,0-0.1,0,0.1,0l0,0l0,0l-0.2,0c-0.2,0-0.3,0-0.5,0
					c-1.3,0.1-2.5,0.9-3.4,2c-0.9,1.1-1.4,2.3-1.6,3.4c-0.2,1.5-0.1,2.9,0.1,4.2c0.2,1.2,0.5,2.3,0.7,3.1c0.4,1.7,0.6,2.6,0.4,2.7
					c-0.2,0.1-0.8-0.6-1.6-2.2c-0.4-0.8-0.9-1.8-1.4-3.1c-0.4-1.3-0.8-2.9-0.7-4.9c0.1-1.6,0.6-3.4,1.7-5c0.5-0.8,1.2-1.6,2.1-2.3
					c0.9-0.7,2-1.2,3.3-1.4c0.6-0.1,1.3-0.1,1.9,0l0.2,0l0.3,0c0.2,0,0.4,0.1,0.5,0.1c0.3,0.1,0.6,0.2,0.9,0.3
					c1.2,0.5,2.3,1.2,3.2,2.1c0.9,0.8,1.8,1.7,2.5,2.7c0.7,0.9,1.5,1.9,2.2,2.9c0.8,1,1.5,2,2.2,3.1c0.4,0.5,0.7,1.1,1.1,1.7
					l0.5,0.9c0.2,0.3,0.4,0.7,0.6,1.1c1.7,2.9,3.3,6.2,4.7,9.6c1.4,3.4,2.5,7,3.4,10.6c0.9,3.6,1.6,7.3,2.2,11.4
					c-0.3,0.7-0.6,1.4-0.9,2c-1.3-0.2-2.7-0.4-3.9-0.7c-2.5-0.6-4.7-1.4-6.7-2.6c-2-1.2-3.8-2.7-5.6-4.6c-0.4-0.5-0.9-0.9-1.3-1.5
					c-0.5-0.6-0.9-1-1.4-1.6c-0.5-0.6-0.9-1.3-1.4-1.9c-0.5-0.8-1-1.5-1.5-2.3c-0.2-0.3-0.5-0.9-0.8-1.3l-0.8-1.4
					c-0.5-0.9-1-2.1-1.5-3.2l-0.8-1.7l-0.7-1.9c-0.5-1.3-1-2.5-1.2-3.8l-0.5-1.9c-0.1-0.3-0.2-0.6-0.2-1c0-0.3-0.1-0.6-0.1-0.9
					c-0.1-1.2,0-2.2,0.2-3.2c0.2-1,0.5-1.9,1-2.7c0.5-0.8,1.2-1.6,2.2-2.1l0.2-0.1l0,0c0.1-0.1-0.2,0.1-0.1,0.1l0.2-0.1
					c0.2-0.1,0.4-0.2,0.6-0.3c0.4-0.2,0.8-0.3,1.3-0.3c0.8-0.1,1.6-0.1,2.3,0c1.4,0.2,2.4,0.6,3.3,1c1.6,0.8,3.2,1.8,4.5,2.9
					c2.8,2.2,4.9,4.9,6.8,7.6c1.9,2.7,3.5,5.4,5.2,7.9c0.9,1.3,1.6,2.4,2.5,3.4c0.9,1,1.9,2,2.9,2.9c1,0.9,2.1,1.7,3.2,2.3
					c1.1,0.6,2.2,1.1,3.3,1.3c2.2,0.5,4,0.1,5.8-1.2c1.8-1.3,3.5-3.7,4.9-6.4c1.4-2.7,2.3-5.6,2.9-8.7c0.6-3,0.7-6.2,0.4-9.4
					c-0.3-3.1-1.1-6.2-2.4-9.1l8.7,1.4c-2.1,2.5-3.2,5.7-3.1,9.7c0,3.9,1.1,8.2,2.6,12.5c0.8,2.1,1.7,4.3,2.6,6.4
					c1,2.2,2,4.3,3.1,6.1c1.1,1.8,2.3,3.3,3.6,4.3c1.3,1,2.7,1.6,4.3,1.8c3.2,0.5,7.3-0.7,10.5-3c1.7-1.2,3-2.5,4.3-4.3
					c1.3-1.7,2.4-3.7,3.4-5.8c2-4.2,3.4-9.2,4.9-14.3c0.5-2,0.8-4.2,0.6-5.8c0-0.2,0-0.4-0.1-0.5l0-0.2l-0.1-0.2c0-0.1,0-0.1,0-0.2
					c0,0,0-0.1-0.1-0.1c0,0,0-0.1,0-0.1c0,0,0,0,0,0c0,0,0.1-0.1,0.2-0.1c0.1-0.1,0.1-0.1,0.2-0.1c0.1-0.1,0.2-0.1,0.3-0.2l0.1-0.1
					l0,0c0,0,0,0,0.1-0.1c0,0,0,0,0,0l0,0l0,0.1c0,0.1,0,0.1-0.1,0.1c-0.1,0.2-0.2,0.7-0.2,0.8l6.9-3.9c-1.4,4-2,8.4-1.8,12.8
					c0.2,4.4,1.2,8.9,2.9,13c1.7,4.2,4.3,8,7.3,11.2c3.1,3.2,7,5.8,9.9,6.1c0.7,0.1,1.4,0.1,2-0.1c0.7-0.1,1.3-0.4,2-0.7
					c1.4-0.7,2.8-2,3.9-3.5c1.1-1.5,2-3.4,2.7-5.5c0.7-2.1,1.3-4.5,1.7-7.1c1-5.4,1.9-10.8,2.9-16.2c0.5-2.6,0.9-5.3,1.4-8
					c0.1-0.7,0-1.6,0-1.7c0,0,0,0,0,0s0,0,0.1,0c0.2-0.1,0.4-0.1,0.6-0.2c0.4-0.1,0.6-0.2,1-0.4c0.3-0.1,0.5-0.2,0.8-0.4
					c0.2-0.1,0.4-0.2,0.5-0.4c0.1-0.1,0.2-0.2,0.3-0.3c0,0,0-0.1,0.1-0.1c0,0.1,0,0.1-0.1,0.2c-0.1,0.2-0.1,0.3-0.1,0.4l5.3,1
					c-2.9,3.3-4.5,7.9-4.7,13.1c-0.1,2.6,0.1,5.3,0.5,8c0.2,1.4,0.5,2.7,0.9,4l0.6,2c0.2,0.6,0.4,1.3,0.6,1.9
					c0.9,2.5,2.1,4.8,3.5,6.6c0.7,0.9,1.4,1.7,2.2,2.3c0.8,0.6,1.5,1,2.2,1.2c1.5,0.5,2.9,0.4,4.7-0.3c1.7-0.7,3.6-2.2,5.3-4.1
					c0.8-0.9,1.6-1.9,2.3-3c0.4-0.6,0.7-1.1,1.1-1.7c0.3-0.6,0.7-1.2,1-1.8c1.2-2.4,2.3-5,3-7.6c1.5-5.2,2-10.7,1.5-16.1l11.3,3.7
					c-4.3,4.8-6.1,12.3-4.7,18.9c0.1,0.4,0.2,0.8,0.3,1.2c0.1,0.4,0.2,0.8,0.3,1.2c0.3,0.8,0.5,1.6,0.9,2.3c0.6,1.5,1.6,2.9,2.5,4.1
					c2,2.4,4.7,4.5,7.8,5.8l1.2,0.5l1.2,0.4l0.6,0.2l0.6,0.1l1.2,0.3c1.7,0.3,3.3,0.5,5,0.4c3.3,0,6.5-0.8,9.3-2.3
					c5.8-3,10-8.8,12.6-15.5c1.3-3.4,2.1-7,2.7-10.6c0.1-0.9,0.3-1.8,0.3-2.8c0.1-0.9,0.2-1.8,0.2-2.8l0.1-1.3c0-0.3,0-0.6,0-0.9
					c0-0.2,0-0.4,0-0.4c0,0,0,0,0.2,0c0.1,0,0.3-0.1,0.4-0.1c0.3-0.1,0.5-0.2,0.7-0.3c0.4-0.2,0.8-0.4,1-0.5
					c0.5-0.3,0.6-0.5,0.5-0.4c0.1,0.1-0.2-0.2,0.1,0.2l-0.1-0.2l-0.1-0.2c-0.1-0.1,0-0.1,0-0.1c0.1,0,0.1,0,0.2,0c0,0,0,0.1,0,0.1
					c0,0.2,0.1,0.8,0.4,1.5c0.2,0.4,0.4,0.7,0.6,1.2c0,0.1,0.2,0.3,0.1,0.2c0,0,0,0,0,0c0,0,0,0,0,0c-0.1,0.1-0.5,0.5-0.8,0.9
					c-0.1,0.1-0.1,0.2-0.2,0.3l-0.1,0.1l-0.1,0.1l-0.2,0.3c-0.2,0.4-0.4,0.8-0.6,1.2c-1.7,3.1-3,6.4-3.9,9.8
					c-0.9,3.4-1.5,6.8-1.6,10.3c-0.1,3.5,0.1,7.3,0.1,11.6c-0.1,4.3-0.8,8.7-1.9,12.8c-1.1,4.1-2.6,7.9-4.2,11.6
					c-3.3,7.3-7,13.8-10.4,20.3c-3.4,6.5-6.7,12.9-10,19.2c-3.2,6.3-6.3,12.6-9.3,18.8c-3,6.2-5.8,12.3-8.3,18.3
					c-2.5,6-4.7,12-6.3,18c-1.7,6-2.9,12-3.8,18c-1.8,12-2.7,23.8-3.7,35.2c-3.9,45.2-7.1,81.7-9.2,106.8
					C693.5,731.4,692,745.3,691.1,745.2z" fill="#000000" class="color000 svgShape colorStroke000 svgStroke"></path><path stroke="#000000" stroke-miterlimit="10" stroke-width="2" d="M777.5,750.8c0.3,0.7-12.7,7-34.9,13.8c-11.1,3.4-24.5,6.9-39.6,9.8c-15.1,2.9-31.9,5.1-49.6,6.2
					c-8.9,0.6-17.6,0.8-26,0.5c-8.4-0.2-16.5-0.8-24.2-1.9c-1-0.1-1.9-0.2-2.9-0.4c-0.9-0.2-1.9-0.3-2.8-0.5c-1.9-0.3-3.7-0.6-5.5-1
					c-3.6-0.8-7.1-1.5-10.4-2.5c-0.8-0.2-1.7-0.5-2.5-0.7c-0.4-0.1-0.8-0.2-1.2-0.3c-0.4-0.1-0.8-0.3-1.2-0.4
					c-1.6-0.5-3.1-1.1-4.7-1.6c-1.5-0.5-3-1.1-4.4-1.7c-1.4-0.6-2.8-1.1-4.2-1.7c-10.8-4.8-18.7-10.2-23.6-14.6
					c-0.6-0.5-1.2-1-1.8-1.5c-0.5-0.5-1-1-1.5-1.4c-0.9-0.9-1.6-1.7-2.2-2.3c-1.2-1.3-1.7-2-1.5-2.2c0.2-0.2,1,0.3,2.4,1.2
					c0.7,0.5,1.6,1.1,2.6,1.8c0.5,0.4,1,0.8,1.6,1.2c0.6,0.4,1.2,0.8,1.9,1.2c5.3,3.6,13.3,8.2,23.8,12.3c1.3,0.5,2.7,0.9,4.1,1.4
					c1.4,0.5,2.8,1,4.3,1.4c1.5,0.4,3,0.9,4.5,1.3c0.4,0.1,0.8,0.2,1.2,0.3c0.4,0.1,0.8,0.2,1.2,0.3c0.8,0.2,1.6,0.4,2.4,0.6
					c3.2,0.8,6.6,1.4,10.1,2.1c1.7,0.3,3.5,0.5,5.4,0.8c0.9,0.1,1.8,0.3,2.7,0.4c0.9,0.1,1.9,0.2,2.8,0.3c7.5,0.9,15.4,1.3,23.6,1.5
					c8.2,0.1,16.7-0.1,25.4-0.6c34.9-2,66.2-8.2,88.4-13.9C763.6,754.5,777.2,749.8,777.5,750.8z" fill="#000000" class="color000 svgShape colorStroke000 svgStroke"></path><path stroke="#000000" stroke-miterlimit="10" stroke-width="2" d="M765.5,773.3c0.1,0,0.3,0.1,0.5,0.5c0.1,0.2,0.3,0.4,0.4,0.7c0.1,0.3,0.2,0.7,0.4,1.1
					c0.5,1.7,0.8,4.4,0,7.6c-0.8,3.3-2.7,7.1-6.2,10.4c-3.6,3.4-8.5,5.8-14.2,7.3c-5.7,1.5-11.9,2.2-18.4,3.1
					c-6.6,0.9-13.6,1.6-21,2.4c-14.8,1.5-31.2,2.7-48.3,3.6c-17.2,0.9-33.5,1.4-48.4,1.8c-7.4,0.1-14.5,0.3-21.1,0.4
					c-6.6,0.1-13.2,0.2-19.1-2c-2.9-1.1-5.5-2.7-7.5-4.7c-2-2-3.4-4.3-4.4-6.5c-1.9-4.5-2.2-8.5-2.4-11.7c-0.1-3.2,0.2-5.7,0.4-7.4
					c0.3-1.7,0.6-2.5,0.8-2.5c0.2,0,0.4,0.9,0.5,2.5c0.2,1.6,0.3,4.1,0.8,7.1c0.5,3,1.2,6.7,3.1,10.4c1,1.8,2.2,3.6,3.9,5.1
					c1.7,1.5,3.7,2.6,6.2,3.4c2.4,0.7,5.1,1.1,8,1.2c2.9,0.1,6-0.1,9.3-0.3c6.6-0.3,13.6-0.7,21.1-1c14.8-0.7,31.1-1.4,48.2-2.3
					c17.1-0.9,33.4-1.9,48.1-3.1c7.4-0.6,14.4-1.2,21-1.8c6.6-0.6,12.7-1.1,17.9-2.2c2.6-0.6,5.1-1.3,7.2-2.3c2.2-1,4.1-2.1,5.7-3.3
					c3.2-2.6,5.2-5.7,6.2-8.4c1.1-2.7,1.2-5.1,1.1-6.7c0-0.4,0-0.7,0-1.1c0-0.3-0.1-0.6-0.1-0.8
					C765.4,773.6,765.4,773.4,765.5,773.3z" fill="#000000" class="color000 svgShape colorStroke000 svgStroke"></path><path stroke="#000000" stroke-miterlimit="10" stroke-width="2" d="M743.7,809.4c0.1,0,0.3,0.1,0.5,0.4c0.2,0.3,0.5,0.8,0.7,1.5c0.5,1.4,0.9,3.6,0.5,6.5
					c-0.4,2.8-1.5,6.2-3.7,9.6c-1.1,1.7-2.5,3.4-4.3,4.9c-1.7,1.5-3.7,2.9-5.9,4.2c-4.4,2.5-9.6,4.3-15.1,5.7
					c-5.5,1.4-11.4,2.7-17.6,4c-12.5,2.5-26.3,4.5-41,5.6c-14.7,1.1-28.7,1-41.4,0.1c-6.4-0.5-12.6-1.4-18.2-3.2
					c-5.6-1.8-10.6-4.4-14.5-7.9c-3.8-3.5-6.3-7.6-7.7-11.3c-1.4-3.8-1.8-7.4-1.5-10.2c0.3-2.8,1.1-4.9,1.8-6.2
					c0.8-1.3,1.3-1.8,1.5-1.7c0.2,0.1,0.1,0.9-0.3,2.2c-0.2,1.3-0.6,3.3-0.5,5.8c0.1,2.5,0.8,5.5,2.3,8.7c1.5,3.2,3.9,6.5,7.3,9.3
					c3.4,2.7,7.9,4.9,13,6.2c5.1,1.4,10.9,2.1,17.1,2.4c12.4,0.6,26.2,0.5,40.6-0.6c14.4-1,28-2.8,40.4-5c6.2-1.1,12-2.2,17.4-3.3
					c5.4-1.2,10.2-2.5,14.2-4.5c2-1,3.8-2.1,5.4-3.3c1.6-1.2,2.9-2.5,4-3.9c2.2-2.7,3.5-5.6,4.2-7.9c0.7-2.4,0.7-4.4,0.7-5.7
					c0-0.7,0-1.2,0-1.6C743.5,809.6,743.6,809.4,743.7,809.4z" fill="#000000" class="color000 svgShape colorStroke000 svgStroke"></path><path stroke="#000000" stroke-miterlimit="10" stroke-width="2" d="M731.3,846.9c0.2,0,0.5,0.6,0.6,1.8c0.1,1.2,0.1,3.1-0.4,5.4c-0.6,2.3-1.7,5-3.7,7.7
					c-2,2.8-4.8,5.5-8.3,7.7c-3.5,2.3-7.7,4.2-12.2,5.8c-4.5,1.6-9.4,3-14.6,4.1c-10.5,2.3-22.2,3.3-34.4,3.3
					c-6.1,0-12.1-0.1-17.8-0.4c-5.7-0.3-11.2-0.5-16.6-1.2c-5.4-0.6-10.5-1.7-15.2-3.7c-2.3-1-4.4-2.2-6.3-3.6
					c-1.9-1.4-3.6-3-4.9-4.7c-2.7-3.4-4.3-7-5.2-10.2c-0.8-3.3-1-6.2-0.8-8.5c0.4-4.7,1.8-6.9,2.1-6.8c0.5,0.1,0,2.6,0.4,6.8
					c0.2,2.1,0.7,4.6,1.8,7.4c1.1,2.7,2.7,5.7,5.2,8.3c2.4,2.6,5.8,4.8,9.8,6.3c4,1.5,8.7,2.3,13.7,2.8c5,0.4,10.6,0.6,16.2,0.8
					c5.7,0.2,11.5,0.3,17.5,0.3c11.9-0.1,23.2-0.9,33.3-2.7c10-1.9,19.1-4.4,25.6-7.9c3.3-1.8,5.9-3.9,7.8-6.1
					c2-2.2,3.3-4.4,4.1-6.3C730.8,849.5,730.8,847,731.3,846.9z" fill="#000000" class="color000 svgShape colorStroke000 svgStroke"></path><path stroke="#000000" stroke-miterlimit="10" stroke-width="2" d="M714.7,900.2c0.2,0.4-1.1,1.7-3.9,3.2c-2.9,1.5-7.4,3.1-13,4c-2.8,0.5-5.9,0.9-9.2,1.2
					c-3.3,0.4-6.7,0.7-10.4,1c-7.3,0.7-15.4,1.4-23.9,2c-4.2,0.3-8.4,0.6-12.5,0.7c-4.2,0-8.3-0.2-12.3-1.3c-2-0.5-3.9-1.3-5.6-2.2
					c-0.9-0.5-1.7-0.9-2.7-1.7c-1.1-0.9-1.9-2.1-2.2-3.4c-0.3-1.2-0.4-2.1-0.4-2.9c-0.1-0.8-0.1-1.6-0.2-2.3c-0.1-1.5-0.2-3-0.3-4.4
					c-0.7-11.1-0.6-18.1,0.3-18.2c0.9-0.1,2.5,6.7,4.3,17.7c0.2,1.4,0.5,2.8,0.7,4.3c0.1,0.8,0.2,1.5,0.4,2.3
					c0.1,0.8,0.2,1.4,0.4,1.8c0.1,0.3,0.3,0.5,0.6,0.7c0.3,0.2,1.1,0.6,1.8,0.9c1.4,0.6,2.9,1.1,4.5,1.5c6.5,1.5,14.4,0.5,22.9-0.1
					c8.5-0.6,16.6-1.1,23.9-1.5c7.4-0.4,14-0.5,19.5-0.8c5.4-0.3,9.7-1.1,12.7-1.8C712.8,900.4,714.5,899.8,714.7,900.2z" fill="#000000" class="color000 svgShape colorStroke000 svgStroke"></path><path stroke="#000000" stroke-miterlimit="10" stroke-width="2" d="M717.2,903.1c-1.8,0.2-4-7.4-4.3-17c-0.3-9.6,1.5-17.3,3.3-17.2c1.8,0.1,2.9,7.7,3.2,17.1
					C719.7,895.3,719,903,717.2,903.1z" fill="#000000" class="color000 svgShape colorStroke000 svgStroke"></path><ellipse cx="377.9" cy="282.4" stroke="#000000" stroke-miterlimit="10" rx="41.4" ry="1.6" transform="rotate(33.154 377.925 282.386)" fill="#000000" class="color000 svgShape colorStroke000 svgStroke"></ellipse><path stroke="#000000" stroke-miterlimit="10" d="M449.5,220.3c-0.2,0.2-1.9-1.3-4.9-4c-3-2.8-7.3-6.8-12.5-11.8c-10.5-10.1-25-24-41-39.4
					c-25.6-24.5-47.5-45.1-55-52.7l0.8-0.7c1.5,2.3,2.2,3.5,2.1,3.7c-0.1,0.1-1.2-1-2.9-3l0.8-0.7c8.4,6.7,31,26.6,56.6,51.2
					c16.1,15.4,30.3,29.6,40.4,40.1c5.1,5.2,9.1,9.5,11.8,12.6C448.3,218.3,449.7,220.1,449.5,220.3z" fill="#000000" class="color000 svgShape colorStroke000 svgStroke"></path><ellipse cx="482.3" cy="162.4" stroke="#000000" stroke-miterlimit="10" rx="31.2" ry="1.6" transform="rotate(49.286 482.269 162.43)" fill="#000000" class="color000 svgShape colorStroke000 svgStroke"></ellipse><path stroke="#000000" stroke-miterlimit="10" d="M554.8 158c-.9.4-6.1-9.8-13.6-21.6-7.5-11.9-14.4-21-13.7-21.6.6-.6 8.8 7.7 16.4 19.8C551.6 146.7 555.6 157.7 554.8 158zM960 690.9c-.3.4-7-4-17.7-11.4-10.7-7.4-25.3-17.8-41.3-29.4s-30.4-22.3-40.7-30.2c-10.3-7.9-16.6-12.9-16.3-13.3s7 4 17.7 11.4c10.7 7.4 25.3 17.8 41.3 29.4 16 11.6 30.4 22.3 40.7 30.2C954 685.5 960.3 690.5 960 690.9z" fill="#000000" class="color000 svgShape colorStroke000 svgStroke"></path><ellipse cx="943.9" cy="458.8" stroke="#000000" stroke-miterlimit="10" rx="33.5" ry="1.6" transform="rotate(16.791 943.833 458.793)" fill="#000000" class="color000 svgShape colorStroke000 svgStroke"></ellipse><path stroke="#000000" stroke-miterlimit="10" d="M963.3 382.9c-.1.9-8.3.5-18.3.4-10-.2-18.1 0-18.2-.9-.1-.9 8.1-2.5 18.3-2.3C955.3 380.2 963.5 382.1 963.3 382.9zM474.3 580.9c.1.2-1.4 1.8-4.2 4.5s-7.1 6.6-12.3 11.4c-10.5 9.5-25.1 22.5-41.4 36.7-25.3 22-47.1 40.5-55.9 47.3l-.7-.9c2.8-1.6 4.3-2.4 4.5-2.3.1.2-1.2 1.3-3.8 3.2l-.7-.9c8-7.8 29.2-26.9 54.5-48.9 16.3-14.2 31.1-26.9 42-36 5.4-4.5 9.9-8.2 13-10.6S474.1 580.7 474.3 580.9z" fill="#000000" class="color000 svgShape colorStroke000 svgStroke"></path><ellipse cx="322" cy="774.8" stroke="#000000" stroke-miterlimit="10" rx="172.6" ry="1.6" transform="scale(-1) rotate(-89.864 -776.59 322.77)" fill="#000000" class="color000 svgShape colorStroke000 svgStroke"></ellipse><path stroke="#000000" stroke-miterlimit="10" d="M345 910.9c-.4 0-1.1-7.1-1.6-18.6-.5-11.5-1-27.4-1.1-45-.1-17.6.2-33.5.6-45 .4-11.5.9-18.6 1.4-18.6.5 0 .7 7.1.9 18.6.2 11.5.3 27.4.4 45 .1 17.6.2 33.5.1 45C345.7 903.8 345.5 910.9 345 910.9zM1052 263.8c.1.2-.1.6-.8 1-.7.5-1.8.9-3.3 1-2.9.2-7-1.5-9.5-5.3-1.2-1.8-1.8-3.8-2.1-5.6-.3-1.8-.4-3.4-.4-4.7.1-2.6.5-4.2.9-4.2.5 0 .9 1.6 1.3 4 .5 2.4 1.1 5.8 3 8.7.9 1.4 2.1 2.5 3.3 3.3 1.2.8 2.5 1.3 3.6 1.5C1050.3 264 1051.8 263.4 1052 263.8z" fill="#000000" class="color000 svgShape colorStroke000 svgStroke"></path><path stroke="#000000" stroke-miterlimit="10" stroke-width="4" d="M568.3,436.8c-1.7,0.5-4.2-1.9-6.9-6.2c-2.7-4.3-5.7-10.5-8.5-17.4c-2.8-7-4.9-13.4-6-18.4
					c-1.1-5-1-8.5,0.6-9.3c1.6-0.8,4.5,1.2,7.7,5.3c3.2,4.1,6.8,10.2,9.8,17.5c2.9,7.2,4.6,14.2,5.1,19.3
					C570.7,432.8,570,436.3,568.3,436.8z" fill="#000000" class="color000 svgShape colorStroke000 svgStroke"></path><path stroke="#000000" stroke-miterlimit="10" d="M1198.8 495.8c-.3.3-2.5-1.8-5.2-5.8-1.4-1.9-2.9-4.4-4.4-7.2-1.5-2.8-2.9-6-4.1-9.5-2.5-6.9-3.7-13.5-4-18.3-.2-2.4-.2-4.3-.1-5.7 0-.3 0-.7.2-1 .1-.3.4-.5.6-.3.2.2.2.4.3.5 0 .1 0 .1.1.1 0 0 .1 0 .2 0 .1-.1.1-.2 0-.3-.1-.1-.3.1-.2.2 0 .2.1.4.1.7.3 1.3.6 3.2 1.1 5.5.9 4.6 2.4 10.8 4.8 17.5C1192.8 485.7 1199.6 495.2 1198.8 495.8zM1002.7 320.4c.2.4-1 1.4-2.8 3-1.8 1.6-4.1 3.9-6.2 6.8-2.1 2.9-3.4 5.9-4.3 8.1-.2.5-.4 1-.6 1.4-.1.2-.1.6.1.7.2.1.3 0 .3-.1 0-.1-.1-.2-.2-.2-.1 0-.1.1-.1.1 0 0-.1.1-.2.2 0 .1-.1.1-.1.2-.1.3-.4.5-.9.4-.5-.1-.8-.7-.8-1.4 0-.7.1-1.2.1-1.9.3-2.6 1.5-6.1 3.9-9.4 2.3-3.3 5.2-5.6 7.5-6.8C1000.9 320.3 1002.5 320 1002.7 320.4zM1013.4 326.2c.3.4-1.1 1.7-3 3.7-1 1-2.1 2.3-3.2 3.7-1.1 1.5-2.3 3.1-3.4 4.9-1.1 1.8-2 3.6-2.7 5.3-.7 1.7-1.3 3.3-1.7 4.6-.9 2.7-1.3 4.4-1.8 4.4-.4 0-.8-1.9-.4-4.9.2-1.5.6-3.3 1.2-5.2.6-1.9 1.5-3.9 2.7-5.9 1.2-2 2.6-3.7 3.9-5.2 1.4-1.5 2.8-2.6 4-3.5C1011.4 326.4 1013.2 325.9 1013.4 326.2zM1179.3 534.5c.3.4-1.5 2.1-4.6 4.6-3.1 2.4-7.6 5.6-13.2 8.3-2.8 1.3-5.6 2.3-8.2 3-1.3.3-2.5.6-3.7.7-.6.1-1.2.2-1.7.2-.6 0-1.1.1-1.6.1-4.1.1-6.5-.6-6.5-1 0-.5 2.5-.6 6.2-1.3.5-.1 1-.2 1.5-.3.5-.1 1-.3 1.6-.4 1.1-.2 2.2-.6 3.4-1 2.4-.8 5-1.8 7.6-3.1 5.3-2.5 9.9-5.3 13.3-7.2C1176.9 535.2 1179.1 534.1 1179.3 534.5zM1433.8 894c-.5 0-.9-1.6-1.7-4-.4-1.2-.9-2.6-1.6-4.2-.7-1.5-1.5-3.1-2.6-4.7-1-1.6-2.2-3-3.2-4.3-1.1-1.2-2.2-2.3-3.1-3.2-1.9-1.7-3.2-2.8-3-3.2.2-.4 1.9-.1 4.3 1.3 1.2.7 2.5 1.7 3.9 2.9 1.3 1.3 2.7 2.8 3.8 4.6 1.1 1.8 2 3.7 2.6 5.4.6 1.8.9 3.4 1 4.8C1434.7 892.3 1434.2 894 1433.8 894z" fill="#000000" class="color000 svgShape colorStroke000 svgStroke"></path><path fill="none" stroke="#ffffff" stroke-miterlimit="10" d="M905.2,225.6" class="colorStrokefff svgStroke"></path><path fill="#ffffff" stroke="#ffffff" stroke-miterlimit="10" d="M948.9,262.5c-0.2,0.4-3.6-1.1-8.8-4.2c-2.6-1.5-5.5-3.5-8.7-5.9c-3.2-2.4-6.6-5.1-10-8.2
					c-3.4-3.1-6.4-6.2-9.1-9.2c-2.6-3-4.9-5.8-6.6-8.2c-3.5-4.9-5.3-8.1-4.9-8.4c0.8-0.6,9.5,11.3,22.8,23.4
					C936.9,254,949.4,261.7,948.9,262.5z" class="colorfff svgShape colorStrokefff svgStroke"></path></svg></g></svg>